<svg width="792" height="370" xmlns="http://www.w3.org/2000/svg"><g fill="none" fill-rule="evenodd"><path d="M716.192 7.92l-.016-.017a1.635 1.635 0 0 1 .26-2.377c1.833-1.355 3.343-3.035 4.995-4.604.55-.523 1.408-.602 2.03-.15a45.66 45.66 0 0 1 9.533 9.294 1.638 1.638 0 0 1-.016 1.958l-3.547 4.643c-.677.903-1.888 1.822-2.809 1.64-.527-.11-1.093-.048-1.47.34-6.026 6.062-7.355 15.476-10.927 23.376-4.224 9.334-11.744 16.719-19.46 23.43-7.717 6.704-15.882 13.058-22.049 21.236-1.943 2.583-3.713 5.364-6.175 7.448-2.47 2.092-5.868 3.407-8.936 2.44-1.825-.57-3.311-1.854-4.735-3.137a167.79 167.79 0 0 1-9.896-9.794c-1.345-1.466-2.674-3.019-3.256-4.92-.936-3.138.425-6.57 2.525-9.057 2.1-2.489 4.877-4.287 7.418-6.324 13.75-11.006 20.837-29.19 35.578-38.818 9.77-6.378 22.552-8.177 30.96-16.616" fill="#2A2E36"/><path d="M352.302 136.942c-2.816 0-5.655-.063-8.534-.19-45.624-2.092-86.89-20.602-126.794-38.501-65.556-29.405-122.168-54.8-190.108-8.415L.31 50.352C90.023-10.89 167.7 23.95 236.23 54.686c37.545 16.838 72.998 32.749 109.685 34.42 45.277 2.069 83.86-18.858 124.686-41.012C524.609 18.8 585.823-14.416 667.709 7.65l-12.231 46.068c-28.783-7.757-55.653-7.472-84.569.888-26.729 7.733-51.57 21.212-77.85 35.474-42.501 23.05-86.378 46.853-140.757 46.861" fill="#4ECDC4"/><path d="M691.867 18.448c5.357 1.664 10.863 3.62 15.63 6.64 1.715 1.077 3.862 2.52 4.523 4.564.677 2.1-1.046 3.708-2.667 4.699-.7.435-1.447.792-2.21 1.125.393-.167 3.06 2.084 3.461 2.393 1.062.816 2.148 1.735 2.91 2.844.488.706.819 1.561.78 2.425-.08 1.466-1.11 2.536-2.242 3.312-.81.563-2.463.618-2.95 1.593-.378.784 1.093 2.147 1.258 2.971.228 1.205-.299 2.702-.716 3.89-.723 2.037-2.784 1.8-4.436 2.346-.299.103-.582.325-.669.642-.385 1.395 2.643 2.75 2.864 4.247.51 3.637-4.248 4.992-6.923 4.176-1.998-.602-3.862-1.68-5.828-2.385-1.361-.484-2.738-.935-4.13-1.3-.566-.15-1.148-.309-1.746-.356-.496-.04-1.015-.135-1.51.047-.677.238-1.314 1.15-.771 1.815.243.285.605.436.951.57 2.18.84 4.405 1.157 6.663 1.68 1.085.254 2.352.587 3.17 1.387.763.729 1.078 1.838.999 2.892-.063.959-.425 2.361-1.164 3.011-.724.634-1.652.872-2.588.927-3.65.214-7.48-1.466-10.73-2.924-2.863-1.283-5.868-2.702-8.385-4.611-2.297-1.752-4.122-4.31-5.68-6.728-1.769-2.75-3.256-5.673-5.018-8.423-.708-1.085-6.182-3.39-8.739-4.849l7.748-29.936c1.59.096 8.063 1.633 8.472 1.57 1.51-.215 3.013-.5 4.515-.77 2.926-.522 5.892-.982 8.873-.807 2.195.126 4.2.68 6.285 1.323" fill="#E7AA6B"/><path d="M627.832 182.029h160.161c.048-1.37-.385-4.01-.676-5.483H628.5c-.29 1.474-.723 4.112-.668 5.483" fill="#FF6C6B"/><path d="M627.898 182.1c.33 1.22.983 3.422.7 4.904h158.62c-.284-1.482.37-3.684.7-4.905.04-.15.063-.34.078-.57h-160.17c.009.23.032.42.072.57" fill="#8D4444"/><path d="M773.916 205.997c0-1.22 1-2.22 2.21-2.22 1.22 0 2.21 1 2.21 2.22v8.525a2.22 2.22 0 0 1-2.21 2.227 2.226 2.226 0 0 1-2.21-2.227v-8.525zm4.42 58.152c0 1.22-.99 2.226-2.21 2.226-1.21 0-2.21-1.006-2.21-2.226v-42.9c0-1.22 1-2.226 2.21-2.226 1.22 0 2.21 1.006 2.21 2.227v42.899zm-150.51-56.235c0 2.964.111 54.262.111 54.262s-.11 3.193.236 3.882c.173.357.385 1.205.535 1.942h158.714c.158-.737.37-1.585.543-1.942.338-.69.22-3.882.22-3.882s.118-51.298.118-54.262c0-2.971-.566-7.084-1.022-8.114H628.85c-.457 1.03-1.023 5.143-1.023 8.114zM628.444 188.292c-.275 1.22-1.84 4.049-2.273 5.657h163.214c-.433-1.608-1.998-4.437-2.273-5.657l-.024-.119h-158.62l-.024.119z" fill="#FF6C6B"/><path d="M627.827 198.416h158.439a.624.624 0 0 1-.047-.277H627.874a.624.624 0 0 1-.047.277M786.791 150.056c0-.023.008-.055.008-.087h-.023c.008.032.008.064.015.087" fill="#458F66"/><path d="M628.385 154.435c-.055.579-.346 1.926-.558 3.201H787.61c-.212-1.275-.503-2.622-.559-3.2-.07-.698-.007-1.863.126-2.806H628.26c.133.943.196 2.108.125 2.805" fill="#FF6C6B"/><path d="M627.827 149.97a.358.358 0 0 1 .008.086c.008-.023.008-.055.016-.087h-.024z" fill="#458F66"/><path d="M777.7 141.814c0 1.22-1 2.227-2.21 2.227-1.22 0-2.211-1.006-2.211-2.227v-2.195a2.22 2.22 0 0 1 2.21-2.226c1.212 0 2.21.998 2.21 2.226v2.195zm-4.421-20.245c0-1.22.991-2.226 2.21-2.226 1.212 0 2.21 1.006 2.21 2.226v12.028a2.226 2.226 0 0 1-2.21 2.227 2.22 2.22 0 0 1-2.21-2.227V121.57zm14.151-2.71s.283.024.708.008c-9.557-2.337-36.396-3.78-78.244-3.78-47.228 0-72.95 1.062-81.351 3.978l-.716 26.22H787.02l-.716-26.41 1.125-.016z" fill="#FF6C6B"/><path d="M627.868 171.502c.228.911 1.14 3.431.904 4.342-.047.175-.11.5-.189.912H787.4a15.964 15.964 0 0 0-.189-.912c-.228-.91.685-3.43.905-4.342.063-.245.047-.84-.008-1.6H627.876c-.056.76-.071 1.355-.008 1.6M787.893 117.876c1.204-.032 3.517-.42 3.603-2.869.118-3.312-3.406-4.342-3.406-4.342-14.772-3.669-74.044-3.875-80.62-3.882h-.59c-6.576.007-65.847.213-80.62 3.882 0 0-3.515 1.03-3.397 4.342.11 3.312 4.302 2.853 4.302 2.853l1.133.024v.182c8.401-2.916 34.123-3.978 81.351-3.978 41.848 0 68.687 1.442 78.244 3.788" fill="#8D4444"/><path d="M628.614 163.598c-.166.92-.63 4.136-.787 6.165h160.24c-.157-2.029-.63-5.246-.786-6.165-.024-.11-.032-.222-.048-.34H628.661c-.008.118-.024.23-.047.34" fill="#FF6C6B"/><path d="M627.942 159.355c.417.626.818 2.195.724 3.431H787.24c-.103-1.236.307-2.805.723-3.431.22-.34.087-1.505-.118-2.742H628.06c-.212 1.237-.338 2.401-.118 2.742" fill="#8D4444"/><path d="M628.54 302.91c-.267 1.673-.951 3.757-.628 4.826.086.294.212.769.354 1.324 47.519 7.9 112.013 7.86 159.343-.127.118-.507.244-.92.323-1.197.33-1.093-.394-3.256-.653-4.952-47.205 7.916-111.36 7.955-158.738.127" fill="#FF6C6B"/><path d="M629.02 314.53a.548.548 0 0 0-.024.063c-.661 1.657-1.314 5.246-1.14 7.132 43.121 7.282 100.512 7.963 146.324 2.052v-2.036c0-1.229 1-2.227 2.21-2.227 1.22 0 2.219.998 2.219 2.227v1.442c3.477-.5 6.898-1.014 10.21-1.585.126-1.917-.511-5.388-1.156-7.005-.024-.063-.04-.126-.055-.182-47.181 7.892-111.243 7.932-158.589.12M628.527 289.623c.04.49.055.919 0 1.204-.228 1.26-.802 3.43-.684 4.802a.3.3 0 0 1 .008.087c47.755 8.019 112.902 7.971 160.468-.135.102-1.37-.448-3.51-.677-4.754-.055-.309-.039-.777.008-1.331-47.283 7.963-111.659 8.003-159.123.127" fill="#FF6C6B"/><path d="M778.58 353.02c0 1.22-.998 2.226-2.21 2.226-1.219 0-2.21-1.006-2.21-2.226V348.7c0-1.22.991-2.226 2.21-2.226 1.212 0 2.21 1.006 2.21 2.226v4.319zm0-10.824a2.226 2.226 0 0 1-2.21 2.226 2.22 2.22 0 0 1-2.21-2.226v-18.962c-45.82 5.911-103.211 5.23-146.333-2.052 0 .056.008.119.016.174.22 1.83.338 33.589.338 33.589s-.15.103-.33.301c1.014 3.28 11.02 11.006 82.924 11.006 63.542 0 76.254-6.759 78.11-10.855-.244-.301-.456-.452-.456-.452s.118-31.758.338-33.589c.016-.095.024-.198.032-.3-3.32.57-6.741 1.093-10.218 1.584v19.556z" fill="#FF6C6B"/><path d="M627.827 296.275c.15 1.41 1.125 4.405.897 6.085a2.473 2.473 0 0 1-.048.309c47.386 7.829 111.534 7.789 158.738-.127l-.023-.182c-.228-1.711.794-4.802.904-6.173v-.047c-47.566 8.114-112.713 8.161-160.468.135" fill="#8D4444"/><path d="M627.827 309.563c.393 1.593.818 3.954.346 5.245 47.338 7.813 111.408 7.781 158.588-.119-.424-1.339.024-3.7.41-5.26-47.33 7.986-111.825 8.034-159.344.134" fill="#8D4444"/><path d="M628.623 279.648c-.22 1.316-.826 3.487-.795 4.675 47.818 8.05 113.099 8.011 160.728-.134-.008-1.22-.598-3.344-.81-4.604v-.055c-47.291 7.955-111.66 7.995-159.123.118" fill="#FF6C6B"/><path d="M709.954 366.943c-71.904 0-81.91-7.726-82.924-11.006-.41.452-1.038 1.402-.81 2.9.346 2.171 5.223 8.336 49.226 9.825 9.132.31 16.29.523 21.899.682l-.008.23s-.732.23 10.155.016c10.871.213 10.14-.016 10.14-.016l-.008-.23c5.608-.159 12.766-.373 21.907-.682 44.003-1.49 48.872-7.654 49.218-9.825.204-1.347-.283-2.266-.684-2.75-1.857 4.097-14.568 10.856-78.11 10.856M627.827 284.647c0 .064.008.127.008.175.094.887.653 3.399.802 5.079 47.464 7.876 111.832 7.836 159.123-.127.166-1.672.7-4.089.787-4.952.008-.087.008-.198.008-.31-47.63 8.146-112.918 8.194-160.728.135" fill="#8D4444"/><path d="M786.8 151.717c0-.031-.009-.063-.009-.087-.007.024-.007.056-.015.087h.023zM627.827 151.717h.024c-.008-.031-.008-.063-.016-.087 0 .024 0 .056-.008.087M627.843 149.97c-.008.031-.008.063-.016.086.008.024.008.056.016.08h158.91c.008-.024.008-.056.016-.08-.008-.023-.008-.055-.015-.087H627.843z" fill="#397454"/><path d="M627.827 146.412c.141.761.267 1.419.299 1.783.07.698.008 1.87-.126 2.797h158.919c-.134-.927-.197-2.1-.126-2.797.031-.364.157-1.022.307-1.783l-.048-1.426H627.866l-.04 1.426zM626.171 193.536a1 1 0 0 0 .04.19c.086.302.18.666.29 1.07.7 1.189 2.172 2.9 2.187 3.851h158.345c.024-.943 1.455-2.623 2.17-3.811.103-.412.213-.8.3-1.11.023-.07.04-.158.055-.26-.024-.096-.063-.207-.087-.31H626.258c-.032.135-.071.262-.087.38" fill="#8D4444"/><path d="M775.74 218.072c-1.211 0-2.21 1.006-2.21 2.226v42.899c0 1.228.999 2.235 2.21 2.235 1.212 0 2.21-1.007 2.21-2.235v-42.899c0-1.22-.998-2.226-2.21-2.226M775.74 216.101c1.212 0 2.21-.998 2.21-2.226v-8.526a2.226 2.226 0 0 0-2.21-2.227c-1.211 0-2.21.999-2.21 2.227v8.526c0 1.228.999 2.226 2.21 2.226M775.74 134.891c1.212 0 2.21-.998 2.21-2.227v-12.028c0-1.22-.998-2.226-2.21-2.226-1.211 0-2.21 1.006-2.21 2.226v12.028c0 1.229.999 2.227 2.21 2.227M777.95 321.62a2.226 2.226 0 0 0-2.21-2.226 2.22 2.22 0 0 0-2.21 2.227v2.036c1.487-.198 2.958-.396 4.42-.594v-1.442z" fill="#FFFFFE"/><path d="M775.74 344.499c1.212 0 2.21-.999 2.21-2.227v-19.556c-1.454.198-2.933.404-4.42.595v18.961c0 1.228.999 2.227 2.21 2.227M775.74 345.97c-1.211 0-2.21 1.007-2.21 2.227v4.319c0 1.22.999 2.226 2.21 2.226 1.212 0 2.21-1.006 2.21-2.226v-4.319c0-1.22-.998-2.226-2.21-2.226M775.74 136.681c-1.211 0-2.21.998-2.21 2.219v2.202c0 1.22.999 2.227 2.21 2.227 1.212 0 2.21-1.006 2.21-2.227V138.9c0-1.22-.998-2.219-2.21-2.219" fill="#FFFFFE"/><path d="M626.171 273.188c0 .087.008.182.024.277 53.143 3.494 109.661 3.478 162.78-.048.009-.079.017-.174.017-.253 0-.595-.67-1.72-1.283-2.63l-1.03-1.38s.11-.578.252-1.252H628.224c.142.674.252 1.252.252 1.252l-.677.904c-.676.958-1.628 2.416-1.628 3.13" fill="#FF6C6B"/><path d="M788.063 275.928s.78-1.886.89-3.043c-53.12 3.527-109.638 3.534-162.782.048.118 1.165.881 3.019.881 3.019l-.016-.008c.653 1.624 1.11 3.534.96 4.445-.008.024-.008.048-.016.064 47.472 7.876 111.833 7.844 159.132-.111-.134-.943.322-2.83.967-4.422l-.016.008z" fill="#8D4444"/><path d="M726.812 231.726c-.394-7.274-5.821-13.835-12.783-15.514-7.787-1.87-15.236 1.307-19.232 8.296-1.078 1.878-2.659 2.115-3.8 1.703-1.683-.618-2.407-2.551-1.541-4.183 2.037-3.843 4.924-6.886 8.66-9.081 4.437-2.607 9.227-3.637 14.324-2.995 6.962.88 12.445 4.294 16.41 10.118 2.178 3.225 3.444 6.791 3.767 10.69.008.11.031.213.047.324.032.19.071.389.11.634 1.4 0 2.785.008 4.177 0 .362 0 .787-.047.858.396.07.365.007.769-.08 1.134-.046.198-.267.34-.432.499l-6.71 6.75c-.841.856-1.345.864-2.178.032-2.266-2.282-4.54-4.556-6.789-6.862-.26-.261-.495-.641-.558-1.006-.11-.594.251-.935.857-.935 1.613-.008 3.225 0 4.893 0M687.528 240.806c-1.408 0-2.793.024-4.185-.016-.283-.008-.724-.15-.802-.349-.126-.325-.071-.752 0-1.117.039-.19.26-.34.417-.507l6.749-6.799c.88-.88 1.345-.88 2.234.008 2.234 2.25 4.468 4.501 6.702 6.76.188.19.377.38.503.61.393.713-.008 1.41-.81 1.41h-4.877c.252 3.4 1.369 6.418 3.359 9.08 2.643 3.55 6.143 5.785 10.454 6.64 6.584 1.316 13.348-1.347 17.313-6.996.433-.626.794-1.292 1.188-1.934.92-1.434 2.58-1.885 3.98-1.077 1.408.816 1.88 2.56 1.062 4.049-3.28 5.919-8.141 9.857-14.686 11.473-7.221 1.775-13.868.325-19.744-4.247-4.476-3.494-7.268-8.122-8.377-13.74-.213-1.037-.315-2.1-.48-3.248" fill="#FFFFFE"/></g></svg>