<svg width="606" height="253" xmlns="http://www.w3.org/2000/svg" xmlns:xlink="http://www.w3.org/1999/xlink"><defs><path id="a" d="M.453.035h394.466v216.588H.453z"/><path id="c" d="M0 253h605.617V.035H0z"/></defs><g fill="none" fill-rule="evenodd"><path fill="#9A5C69" d="M205.475 163.178l-50-17.74V27.218l50 17.739z"/><g transform="translate(0 -.035)"><path d="M130.358 189.087c-1.642-11.594-5.636-23.21-14.636-31.165-3.972-3.511-9.021-6.053-14.333-7.213 2.203-.358 4.45-1.144 6.59-2.387 3.949-2.29 6.744-5.666 8.032-9.215-3.653-.631-7.882.085-11.772 2.281.017-.073.038-.147.054-.221.953-4.465-.277-8.933-3.011-12.477-3.944 2.12-6.891 5.694-7.845 10.159-.84 3.93.016 7.863 2.099 11.167-2.736-.052-5.464.287-8.077 1.078-2.243.679-4.322 1.737-6.251 3.095-11.467 8.06-17.648 26.64-21.674 38.464-5.504 16.162-7.712 35.962 5.459 49.133 10.097 10.096 24.126 13.416 37.817 9.791 12.409-3.285 25.077-10.587 28.258-23.85 2.92-12.178 1.022-26.405-.71-38.64m-24.013 14.144c-1.718 3.077-4.265 5.123-7.694 5.962-3.781.925-7.263.168-10.34-2.209-2.347-1.814-3.805-4.222-4.39-7.14-.108-.543-.163-1.096-.25-1.691-.737 0-1.465.01-2.192-.007-.148-.004-.378-.08-.42-.183-.068-.168-.037-.39 0-.58.02-.099.137-.181.218-.264 1.179-1.18 2.358-2.36 3.538-3.538.457-.456.705-.454 1.165.005a2329.26 2329.26 0 0 1 3.513 3.515c.097.096.198.2.263.317.208.374-.004.733-.423.734-.844.002-1.69 0-2.554 0 .133 1.766.714 3.336 1.757 4.724 1.384 1.841 3.218 3.008 5.476 3.454a8.941 8.941 0 0 0 9.07-3.645c.226-.32.415-.667.626-.999.477-.746 1.353-.984 2.082-.565.737.425.989 1.331.555 2.11m3.93-9.273c-.024.1-.143.178-.224.26-1.172 1.17-2.343 2.344-3.515 3.514-.443.441-.71.446-1.142.013-1.188-1.185-2.38-2.371-3.56-3.567a1.083 1.083 0 0 1-.291-.524c-.06-.313.13-.488.45-.49h2.565c-.206-3.781-3.052-7.194-6.698-8.063-4.081-.976-7.981.677-10.075 4.31-.564.98-1.393 1.102-1.991.885-.88-.319-1.26-1.321-.806-2.172a11.818 11.818 0 0 1 4.535-4.724c2.324-1.356 4.835-1.894 7.503-1.559 3.647.458 6.519 2.236 8.596 5.266a11.355 11.355 0 0 1 1.976 5.554c.004.058.016.114.025.172l.055.33c.735 0 1.463.002 2.19 0 .189-.002.409-.026.452.206.035.19.003.4-.045.59" fill="#3C3C3B"/><path d="M99.666 128.508c.41-.751-.176-3.335-.4-5.155l10.547-1.316c.16.419.271.89.311 1.4.155 1.934 1.432 3.828 2.307 5.558 1.04 2.056 1.2 3.514 1.473 5.736a53.703 53.703 0 0 0 1.215 6.41c.342 1.369.64 3.196.4 4.479-.269 1.43-1.968.1-2.154-.883-.34-1.792-.406-2.018-.606-3.59-.107-.837-.948-3.5-1.307-1.504-.367 2.043.54 5.22 1.066 7.15.351 1.287.98 3.585.602 4.85-.779 2.612-2.948-1.601-3.283-2.758-.777-2.68-1.08-5.535-1.537-8.284-.06-.363-.102-.838-.424-1.076-.428-.316-.484.558-.508.776-.216 1.957.445 4.067.906 5.952.496 2.029 1.026 4.08 1.028 6.184 0 .37-.019.752-.179 1.085-.259.538-.815.706-1.352.495-1.373-.538-1.407-2.968-1.612-4.097-.433-2.378-.868-4.756-1.313-7.132-.097-.52-.168-1.046-.295-1.561-.068-.275-.119-1.32-.558-1.28-.219.019-.278.349-.3.518a6.027 6.027 0 0 0-.036 1.014c.022.558.11 1.11.183 1.663.153 1.147.385 2.282.6 3.419.27 1.425.5 2.798.4 4.258-.034.48-.09 1.04-.485 1.374-.927.784-1.914-1.151-2.144-1.795-.554-1.555-.616-3.38-.804-5.01-.194-1.69-.385-3.408-.719-5.061-.145-.72-.225-1.893-.697-2.488-1.548-1.952-2.803 4.634-3.768 5.282-1.358.91-2.429.755-2.322-1.002.127-2.09 1.477-6.246 2.458-8.04 1.036-1.895 2.272-3.676 3.307-5.571M48.33 53.294c.82-.153 1.651-.438 2.922-1.183.377-.22 1.38-.042 2.17.42.312.18.247.62.088 1.066 2.076-.434 4.129-.488 6.022-.159-1.26 3.473-3.997 6.779-7.863 9.02a19.308 19.308 0 0 1-4.311 1.835c-.061.431-.03.802.119 1.096.659.197 1.312.416 1.957.654 1.215-.447 3.797-3.752 4.588-4.548 1.666-1.678 3.004-3.811 4.857-5.303 3.838-3.087 8.066-5.5 11.697-8.938a408.258 408.258 0 0 0 3.395-3.262l-8.267-7.301c-1.572 1.597-2.745 2.29-5.498 2.386-2.669.096-5.373-.495-8 .095-2.28.512-3.542 1.24-4.772 3.214a22.287 22.287 0 0 1-1.48 2.064c1.688 2.644 2.553 5.706 2.376 8.844M38.008 62.119c.2.253.412.39.633.456a15.144 15.144 0 0 1-.697-1.691c-.093.577-.096 1.032.064 1.235" fill="#F2B56A"/><path d="M73.579 102.37c-1.607-11.351-5.518-22.723-14.33-30.512-2.818-2.491-6.194-4.473-9.816-5.814a.786.786 0 0 1-.224.05c-.96.039-1.495-.232-1.734-.704a30.516 30.516 0 0 0-2.26-.593 18.021 18.021 0 0 0 2.142-.503c.428-3.013 5.316-8.828 5.699-9.684.1-.227.313-.623.453-1.013a19.082 19.082 0 0 0-5.502 2.074c.017-.072.037-.144.053-.218.154-.721.228-1.44.27-2.158-.852.16-1.688.182-2.984.427-1.424.268-1.671 2.44-2.383 3.985-.287.62-2.568 5.398-4.322 4.868.255.525.53 1.043.845 1.54-2.68-.05-5.35.283-7.907 1.057-2.198.665-4.233 1.7-6.122 3.03C14.23 76.096 8.18 94.286 4.238 105.86c-5.389 15.823-7.55 35.209 5.345 48.105 9.886 9.885 23.62 13.136 37.026 9.588 12.149-3.217 24.551-10.367 27.666-23.353 2.858-11.922 1-25.851-.695-37.831m-23.51 13.848c-1.683 3.012-4.177 5.015-7.534 5.838-3.701.906-7.11.165-10.122-2.163-2.298-1.775-3.726-4.133-4.298-6.991-.106-.532-.16-1.074-.245-1.656-.723 0-1.436.01-2.148-.008-.144-.003-.37-.076-.41-.177-.068-.165-.037-.382 0-.57.02-.095.133-.176.213-.256l3.465-3.465c.447-.447.69-.445 1.14.005a2232.21 2232.21 0 0 1 3.439 3.442c.094.094.194.195.258.31.204.365-.005.718-.416.719h-2.498c.128 1.728.698 3.267 1.719 4.625 1.355 1.804 3.151 2.945 5.363 3.382a8.752 8.752 0 0 0 8.879-3.57c.22-.313.405-.653.612-.977.468-.732 1.325-.963 2.039-.553.721.416.968 1.303.544 2.065m3.847-9.077c-.023.096-.14.172-.22.252l-3.44 3.44c-.434.433-.694.437-1.118.016-1.164-1.163-2.33-2.323-3.485-3.494a1.067 1.067 0 0 1-.286-.513c-.057-.306.128-.48.44-.48h2.511c-.2-3.702-2.987-7.043-6.556-7.895-3.996-.954-7.816.663-9.866 4.22-.552.959-1.363 1.08-1.948.868-.86-.314-1.235-1.295-.79-2.127a11.562 11.562 0 0 1 4.441-4.624c2.275-1.33 4.734-1.855 7.346-1.528 3.57.449 6.383 2.189 8.414 5.157a11.093 11.093 0 0 1 1.935 5.437c.006.057.017.112.026.168l.053.324c.72 0 1.433.002 2.145-.002.184 0 .4-.024.443.203.034.185.002.39-.044.578" fill="#3C3C3B"/><path d="M42.23 48.896c1.221-1.56 2.528-2.937 3.723-4.445a16.07 16.07 0 0 0-.842-1.211c-3.86 2.073-6.747 5.573-7.68 9.944-.563 2.634-.333 5.263.512 7.7.268-1.66 1.297-4.34 1.472-5.032.641-2.55 1.18-4.872 2.814-6.956M49.209 66.093a.76.76 0 0 0 .225-.05 31.421 31.421 0 0 0-1.958-.654c.238.473.774.743 1.733.704" fill="#3C3C3B"/><path d="M59.532 53.438c-1.894-.328-3.946-.273-6.023.159-.14.39-.352.786-.454 1.013-.381.855-5.27 6.67-5.697 9.684a19.328 19.328 0 0 0 4.31-1.835c3.867-2.242 6.604-5.547 7.864-9.021" fill="#F2B56A"/><path d="M42.963 57.707c.712-1.544.959-3.717 2.383-3.986 1.296-.244 2.133-.266 2.984-.426.177-3.14-.69-6.2-2.376-8.845-1.195 1.508-2.502 2.887-3.724 4.445-1.635 2.085-2.173 4.406-2.814 6.957-.175.693-1.204 3.373-1.472 5.032.2.575.429 1.14.697 1.691 1.755.53 4.036-4.247 4.322-4.868" fill="#3C3C3B"/><path d="M262.941 35.41l-.557 14.546c-7.974-.305-13.78 1.778-18.827 6.754-4.909 4.841-8.529 11.833-12.36 19.235-6.653 12.848-14.192 27.41-30.704 32.764-7.66 2.484-15.153 2.271-22.906-.649-6.31-2.377-11.853-6.179-17.213-9.856-6.774-4.646-13.172-9.035-19.978-9.723-8.263-.836-14.885 1.226-19.683 6.128-6.369 6.507-9.272 17.7-7.768 29.943l-14.448 1.775c-2.04-16.595 2.375-32.259 11.812-41.9 7.936-8.108 18.846-11.715 31.551-10.43 10.508 1.063 19.136 6.981 26.748 12.202 10.768 7.386 17.852 11.756 27.395 8.662 10.824-3.51 16.381-14.244 22.265-25.609 4.186-8.085 8.514-16.445 15.067-22.907 7.928-7.818 17.612-11.395 29.606-10.936" fill="#005640"/><path d="M173.082 77.279a61.708 61.708 0 0 1-2.772-.427c-14.77-2.62-27.428-10.366-39.667-17.856-20.106-12.306-37.47-22.932-61.562-10.836l-6.978-13.898c31.815-15.974 55.64-1.394 76.657 11.469 11.514 7.047 22.39 13.702 34.265 15.808 14.662 2.6 28.113-2.518 42.351-7.94 18.831-7.168 40.174-15.294 65.911-4.666l-5.935 14.374c-9.047-3.736-17.81-4.791-27.58-3.32-9.036 1.36-17.695 4.657-26.863 8.147-14.817 5.64-30.117 11.464-47.827 9.145" fill="#459568"/><g transform="translate(200)"><mask id="b" fill="#fff"><use xlink:href="#a"/></mask><path d="M60.744.035h244.532a27.334 27.334 0 0 1 25.903 18.607l13.522 46.11a41.674 41.674 0 0 0 20.923 25.333 54.015 54.015 0 0 1 29.295 48.026v36.828c0 23.022-18.663 41.684-41.685 41.684H42.137c-23.021 0-41.684-18.662-41.684-41.684V60.326C.453 27.028 27.446.035 60.743.035" fill="#E88698" mask="url(#b)"/></g><path fill="#FCE0DC" d="M500.954 23.758h20.468l14.187 54.425h-34.656z"/><mask id="d" fill="#fff"><use xlink:href="#c"/></mask><path fill="#FCE0DC" mask="url(#d)" d="M418.502 78.184h67.682V23.759h-67.682z"/><path d="M283.11 252.622c25.368 0 45.935-20.566 45.935-45.937 0-25.37-20.567-45.935-45.936-45.935-25.37 0-45.936 20.566-45.936 45.935M237.173 206.685c0 25.37 20.566 45.937 45.936 45.937" fill="#2A2A2A" mask="url(#d)"/><path d="M257.59 206.685c0 14.095 11.425 25.521 25.52 25.521 14.093 0 25.52-11.426 25.52-25.52 0-14.095-11.427-25.52-25.52-25.52-14.095 0-25.52 11.425-25.52 25.52" fill="#FCE0DC" mask="url(#d)"/><path d="M273.171 206.685c0 5.49 4.45 9.938 9.938 9.938s9.937-4.449 9.937-9.938c0-5.487-4.449-9.938-9.937-9.938-5.489 0-9.938 4.451-9.938 9.938" fill="#FCE0DC" mask="url(#d)"/><path d="M524.21 252.622c25.37 0 45.935-20.566 45.935-45.937 0-25.37-20.566-45.935-45.935-45.935-25.37 0-45.937 20.566-45.937 45.935M478.274 206.685c0 25.37 20.566 45.937 45.937 45.937" fill="#2A2A2A" mask="url(#d)"/><path d="M498.69 206.685c0 14.095 11.426 25.521 25.52 25.521s25.52-11.426 25.52-25.52c0-14.095-11.426-25.52-25.52-25.52s-25.52 11.425-25.52 25.52" fill="#FCE0DC" mask="url(#d)"/><path d="M514.273 206.685c0 5.49 4.449 9.938 9.937 9.938 5.489 0 9.938-4.449 9.938-9.938 0-5.487-4.45-9.938-9.938-9.938s-9.937 4.451-9.937 9.938" fill="#FCE0DC" mask="url(#d)"/><path fill="#2A2A2A" mask="url(#d)" d="M594.919 164.356h5v-30.353h-5z"/><path d="M599.92 161.682v-25.003a5.698 5.698 0 0 1 5.696 5.698v13.607a5.698 5.698 0 0 1-5.697 5.698" fill="#FFF" mask="url(#d)"/><path fill="#2A2A2A" mask="url(#d)" d="M594.919 177.942h5v-10.911h-5z"/><path fill="#F2B56A" mask="url(#d)" d="M599.918 176.8h4.187v-8.722h-4.187z"/><path d="M247.534 111.248c0-.257.07-.458.21-.606a.735.735 0 0 1 .506-.238h17.553c.28 0 .49.079.633.238.14.159.21.37.21.639v4.537a.961.961 0 0 1-.22.594c-.147.189-.361.283-.643.283h-11.15v5.686h8.809a.9.9 0 0 1 .587.193c.158.128.239.332.239.613v4.385a.988.988 0 0 1-.211.595.682.682 0 0 1-.58.285h-8.844v8.4c0 .525-.281.788-.844.788h-5.594c-.44-.061-.661-.318-.661-.77v-25.622zM272.16 111.192c0-.22.074-.41.22-.569.148-.158.35-.239.607-.239h5.428c.208 0 .397.075.569.22a.791.791 0 0 1 .275.588v19.955h10.088c.22 0 .409.074.568.22.159.147.238.348.238.605v4.824a.88.88 0 0 1-.21.57c-.141.17-.341.262-.596.274h-16.38c-.538 0-.806-.268-.806-.807v-25.64zM303.015 115.689c.021.666.055 1.377.105 2.135.05.759.106 1.521.167 2.288.061.767.116 1.527.163 2.278.048.754.082 1.463.103 2.129l5.216-2.119-5.754-6.711zm-6.045-6.018a.52.52 0 0 1 .021-.264 1.326 1.326 0 0 1 .363-.594.836.836 0 0 1 .265-.177l4.35-1.765a.772.772 0 0 1 .564-.023c.185.064.329.126.435.191l.817.796 18.264 19.386c.183.191.242.381.175.574-.067.191-.254.35-.56.474l-4.878 1.98c-.26.107-.481.139-.661.101-.181-.039-.357-.155-.528-.35-.462-.486-.915-.97-1.364-1.455l-1.345-1.463-9.025 3.664c.021.665.035 1.329.048 1.991.01.662.025 1.325.045 1.99.023.479-.181.805-.61.981l-5.016 2.035a.899.899 0 0 1-.603.048c-.188-.056-.283-.216-.284-.48l-.473-27.64zM330.068 128.836c.208.172.475.401.799.687.323.289.694.573 1.11.854.623.416 1.24.74 1.852.972.61.233 1.253.349 1.925.349.625 0 1.147-.07 1.569-.211.422-.141.754-.327.999-.56.245-.231.418-.5.523-.805.103-.306.156-.63.156-.971 0-.38-.144-.719-.43-1.018a4.53 4.53 0 0 0-1.057-.798 9.325 9.325 0 0 0-1.3-.595 40.799 40.799 0 0 0-1.175-.411c-1.467-.514-2.751-1.066-3.851-1.66-1.101-.592-2.018-1.252-2.752-1.978-.734-.728-1.283-1.528-1.65-2.401-.367-.874-.551-1.848-.551-2.923 0-1.136.229-2.169.687-3.097a6.819 6.819 0 0 1 1.963-2.383c.85-.66 1.875-1.168 3.074-1.53 1.197-.36 2.536-.541 4.016-.541 1.113 0 2.179.127 3.2.377 1.02.251 2.028.651 3.018 1.2a17.8 17.8 0 0 1 1.182.762c.374.264.7.517.982.761.28.245.505.478.669.697.165.221.247.41.247.569a.848.848 0 0 1-.12.44 2.765 2.765 0 0 1-.356.458l-2.806 2.99c-.208.209-.416.312-.624.312a.795.795 0 0 1-.468-.147 6.24 6.24 0 0 1-.468-.367l-.165-.147a15.602 15.602 0 0 0-.816-.642 7.216 7.216 0 0 0-.962-.595 6.314 6.314 0 0 0-1.083-.44 3.894 3.894 0 0 0-1.155-.175c-.403 0-.783.033-1.137.101a3.165 3.165 0 0 0-.936.321 1.767 1.767 0 0 0-.641.578c-.16.238-.24.529-.24.87 0 .343.086.64.258.89.17.251.427.483.77.698.342.213.767.415 1.275.604a42.5 42.5 0 0 0 1.77.615c1.296.428 2.49.878 3.585 1.349 1.094.47 2.039 1.026 2.834 1.669a6.894 6.894 0 0 1 1.862 2.3c.446.894.668 1.975.668 3.247 0 1.346-.275 2.565-.824 3.659a8.389 8.389 0 0 1-2.266 2.797c-.96.771-2.087 1.368-3.383 1.79-1.297.422-2.691.632-4.182.632a11.86 11.86 0 0 1-4.145-.754 15.935 15.935 0 0 1-3.796-2.023 9.803 9.803 0 0 1-1.24-1.05 51.454 51.454 0 0 1-.797-.827l-.055-.055c-.012-.025-.024-.041-.037-.048a.093.093 0 0 1-.037-.026.107.107 0 0 0-.036-.046.15.15 0 0 1-.037-.028c-.281-.306-.422-.552-.422-.734 0-.209.14-.443.422-.7l3.174-3.027c.256-.184.464-.274.622-.274.112 0 .227.035.349.109.124.073.269.183.44.33M353.025 111.21c0-.22.071-.41.211-.569.14-.157.34-.238.594-.238h5.416c.183 0 .374.075.575.221a.69.69 0 0 1 .303.587v9.996c1.332-1.713 2.641-3.4 3.925-5.063 1.284-1.663 2.586-3.35 3.906-5.063.135-.207.31-.376.523-.504.214-.129.424-.192.632-.192h6.97c.295 0 .44.093.44.274 0 .123-.066.27-.2.441l-8.64 11.39 9.556 14.38c.134.207.202.373.202.495 0 .183-.135.275-.404.275h-6.933a1.19 1.19 0 0 1-.615-.182 1.566 1.566 0 0 1-.503-.496 58.788 58.788 0 0 1-1.77-2.531 134.545 134.545 0 0 1-1.55-2.412 1865.26 1865.26 0 0 0-1.523-2.431 87.782 87.782 0 0 0-1.688-2.585l-2.328 2.677v7.153c0 .54-.293.808-.878.808h-5.397c-.549 0-.824-.268-.824-.808V111.21zM384.408 111.248c0-.257.069-.461.21-.615.14-.154.338-.23.594-.23h18.197c.269 0 .477.08.624.239.147.159.22.37.22.639v4.537a.954.954 0 0 1-.22.594c-.147.189-.361.283-.641.283h-11.886v4.548h8.595c.23 0 .423.055.577.165.153.11.229.294.229.55v3.962a.749.749 0 0 1-.202.495c-.134.159-.33.239-.586.239h-8.613v4.695h12.325c.549 0 .826.282.826.84v4.61c0 .122-.05.232-.148.329-.048.343-.3.512-.751.512h-18.546c-.244 0-.44-.064-.585-.193-.146-.127-.22-.326-.22-.595v-25.604zM412.775 111.248c0-.257.07-.458.21-.606a.735.735 0 0 1 .506-.238h17.553c.28 0 .49.079.632.238.139.159.21.37.21.639v4.537a.95.95 0 0 1-.221.594c-.145.189-.36.283-.641.283h-11.15v4.585h8.809c.232 0 .427.064.587.193.158.128.238.332.238.614v4.384c0 .208-.07.407-.212.595a.675.675 0 0 1-.577.285h-8.845v9.5c0 .526-.282.789-.844.789h-5.594c-.44-.061-.661-.318-.661-.77v-25.622zM444.568 115.696a7.8 7.8 0 0 0 .512 2.844c.342.88.82 1.648 1.439 2.303a6.732 6.732 0 0 0 2.187 1.54c.844.373 1.773.56 2.786.56 1.012 0 1.944-.187 2.793-.56a6.704 6.704 0 0 0 2.198-1.54 7.07 7.07 0 0 0 1.438-2.303c.342-.88.513-1.827.513-2.844a7.805 7.805 0 0 0-.513-2.833 7.148 7.148 0 0 0-1.438-2.32 6.76 6.76 0 0 0-2.198-1.56c-.85-.377-1.781-.567-2.793-.567-1.013 0-1.942.19-2.786.567a6.79 6.79 0 0 0-2.187 1.56 7.1 7.1 0 0 0-1.44 2.32 7.825 7.825 0 0 0-.511 2.833m-7.1.02a14.018 14.018 0 0 1 1.909-7.089 14.233 14.233 0 0 1 2.194-2.853 13.759 13.759 0 0 1 2.836-2.192 14.471 14.471 0 0 1 3.349-1.412 13.725 13.725 0 0 1 3.736-.504c1.284 0 2.526.168 3.725.504 1.199.337 2.32.808 3.359 1.412a13.975 13.975 0 0 1 2.845 2.192 13.805 13.805 0 0 1 2.193 2.853 14.568 14.568 0 0 1 1.413 3.356c.336 1.192.504 2.437.504 3.733 0 1.295-.168 2.54-.504 3.732a14.216 14.216 0 0 1-1.413 3.338 13.824 13.824 0 0 1-2.193 2.825c-.857.85-1.805 1.58-2.845 2.191a13.975 13.975 0 0 1-7.084 1.908 13.852 13.852 0 0 1-7.085-1.908 14.108 14.108 0 0 1-2.836-2.19 14.257 14.257 0 0 1-2.193-2.826 13.856 13.856 0 0 1-1.909-7.07M470.144 111.483a.844.844 0 0 1 .133-.589c.115-.173.306-.276.572-.308l5.955-.712c.17-.02.351.001.544.065.192.062.367.189.526.379 1.84 2.306 3.662 4.574 5.469 6.809a3709.39 3709.39 0 0 1 5.487 6.806l-1.745-14.587a.903.903 0 0 1 .23-.545.78.78 0 0 1 .489-.242l5.19-.62a.98.98 0 0 1 .663.131c.187.121.296.306.326.562l3.054 25.531c.029.244-.023.432-.155.565-.131.133-.325.213-.58.244l-5.81.696a.618.618 0 0 1-.439-.114 2.897 2.897 0 0 1-.434-.393l-5.737-7.348c-1.891-2.421-3.809-4.87-5.755-7.347l1.871 15.644c.032.267-.004.475-.111.622-.105.149-.315.241-.632.279l-5.172.619c-.278.033-.491-.019-.637-.155a.836.836 0 0 1-.257-.532l-3.045-25.46zM509.224 116.97v14.103h1.54c.281 0 .558-.007.826-.028.269-.017.538-.04.807-.062a7.384 7.384 0 0 0 2.569-.67 7.108 7.108 0 0 0 2.08-1.468 6.58 6.58 0 0 0 1.394-2.136c.337-.819.504-1.713.504-2.679 0-1.026-.191-1.97-.577-2.833a7.015 7.015 0 0 0-1.567-2.238 7.085 7.085 0 0 0-2.322-1.467 7.65 7.65 0 0 0-2.833-.523h-2.421zm16.782 7.08c0 1.295-.165 2.527-.494 3.694a13.246 13.246 0 0 1-1.413 3.266 13.637 13.637 0 0 1-5.018 4.833 14.24 14.24 0 0 1-3.346 1.33 14.666 14.666 0 0 1-3.723.466h-9.042a1.15 1.15 0 0 1-.587-.147c-.171-.096-.257-.305-.257-.623v-25.622c0-.257.071-.465.211-.623.141-.16.352-.24.633-.24h9.042a14.305 14.305 0 0 1 7.053 1.835 14.339 14.339 0 0 1 2.833 2.108 13.106 13.106 0 0 1 2.192 2.752 13.882 13.882 0 0 1 1.412 3.284c.337 1.173.504 2.402.504 3.686zM526.006 112.83c0-1.939 1.522-3.5 3.452-3.5s3.464 1.571 3.464 3.5c0 1.93-1.534 3.492-3.464 3.492s-3.452-1.563-3.452-3.492m6.302 0c0-1.592-1.257-2.889-2.85-2.889-1.582 0-2.848 1.306-2.848 2.89 0 1.582 1.266 2.878 2.848 2.878 1.593 0 2.85-1.296 2.85-2.879m-4.572.03c0-.97.753-1.75 1.722-1.75.573 0 1.1.295 1.435.761l-.633.454c-.208-.256-.476-.454-.802-.454-.533 0-.91.425-.91.99 0 .543.377.978.91.978.326 0 .604-.188.82-.465l.633.456c-.325.474-.88.791-1.453.791-.969 0-1.722-.802-1.722-1.76" fill="#FFF" mask="url(#d)"/></g></g></svg>