<svg width="740" height="1389" xmlns="http://www.w3.org/2000/svg"><g fill-rule="nonzero" fill="none"><path d="M34.39 117.84c-5.533 8.227 1.182 22.373-8.874 27.466-5.694 2.885-16.674 7.468-23.99 4.34-3.325-2.807 6.06-37.44 7.223-41.704 4.475-16.389 32.688-23.444 46.55-21.778 1.664.2 20.185 6.581 25.098 10.686-1.26-4.344-2.65-8.649-4.25-12.889-3.845-11.73-7.618-23.485-11.552-35.185-3.059-9.1-6.326-18.129-9.484-27.195-.994-2.855-1.229-5.845-.594-8.746.777-3.545 3.653-5.012 6.907-5.722 3.342-.73 5.703 1.131 7.676 3.427 1.9 2.212 3.296 4.78 4.405 7.495 2.15 5.267 3.861 10.69 5.711 16.061 1.521 4.415 2.895 8.881 4.294 13.336 1.544 4.917 12.447 48.737 18.907 46.105 7.332-2.987-10.824-44.452-12.643-50.366-2.578-8.384-5.165-16.759-8.102-25.027-.967-2.72-1.883-5.467-2.129-8.41C79.185 5.44 80.771 2.595 84.72.99c4.324-1.759 7.606-1.01 10.247 2.497 1.182 1.57 2.218 3.254 2.981 5.098 2.206 5.331 3.956 10.823 5.903 16.248 3.252 9.061 6.47 18.135 9.474 27.282 1.305 3.975 13.814 43.368 17.506 37.913 5.257-7.77-13.365-47.392-15.726-56.37-1.017-3.868-1.968-7.759-1.393-11.834.423-2.993 3.451-6.129 6.375-6.195 2.3-.053 4.323.842 5.923 2.595 3.511 3.846 5.583 8.466 7.173 13.335 1.564 4.787 2.877 9.644 4.061 14.544 1.865 7.716 4.017 15.358 6.294 22.968 7.942 26.542 14.083 53.627 21.674 80.27 2.76 9.683 5.594 19.346 8.763 28.907 2.59 7.813 5.171 15.628 8.098 23.32l-56.929 22.828c-2.62-4.83-5.56-9.462-8.906-13.869-4.08-5.376-9.28-9.148-15.517-11.547-6.24-2.4-12.71-2.253-19.218-1.556-6.09.653-12.184 1.29-18.284 1.864-10.149.956-20.01.123-29.48-3.923-5-2.137-19.33-17.14-22.283-21.88-1.397-2.243-2.43-4.627-2.585-7.13H8.87a.019.019 0 0 0 .002-.008c3.194-15.03 19.336-8.852 20.627-8.332 9.836 3.97 16.912 19.041 27.395 20.833 35.228 6.024 30.036-40.936 17.458-57.735-11.452-15.295-28.445-20.398-39.962-3.273" fill="#E7AA6B"/><path d="M740 1355.652l-101.81 32.885c-5.52-17.203-14.656-45.67-30.661-72.027-16.635-27.395-36.24-44.846-58.268-51.865-12.076-3.847-25.081-7.028-38.849-10.393-32.543-7.957-69.428-16.975-103.412-37.978-52.688-32.563-80.508-87.253-76.329-150.05 1.985-29.854 9.254-56.536 16.282-82.339 6.045-22.198 11.758-43.165 12.894-62.884 2.722-47.288-17.845-99.632-62.424-108.18-181.165-34.75-238.85-126.749-255.341-197.807-17.863-76.978 14.732-130.466 40.921-173.444 33.571-55.089 62.565-102.665 16.17-219.326l99.415-39.536c66.125 166.276 13.905 251.968-24.222 314.538-24.348 39.955-35.713 60.623-28.064 93.583 7.229 31.152 26.319 56.12 58.359 76.33 28.618 18.05 66.606 31.705 112.914 40.587 49.555 9.503 91.619 40.02 118.443 85.923 22.498 38.5 33.381 85.907 30.639 133.487-1.78 30.887-9.587 59.555-16.477 84.85-5.904 21.675-11.48 42.15-12.757 61.323-1.526 22.93 7.163 40.402 25.825 51.937 19.586 12.105 45.323 18.397 72.571 25.058 14.918 3.647 30.343 7.417 45.922 12.383 107.318 34.196 144.326 149.528 158.259 192.945" fill="#292F36"/></g></svg>