<svg width="79" height="76" xmlns="http://www.w3.org/2000/svg" xmlns:xlink="http://www.w3.org/1999/xlink"><defs><path id="a" d="M0 0h78.966v75.544H0z"/></defs><g fill="none" fill-rule="evenodd"><g transform="translate(0 .37)"><mask id="b" fill="#fff"><use xlink:href="#a"/></mask><path d="M.156 35.8c-1.02-8.3 3.104-14.84 8.307-20.757 2.27-2.583 5.226-4.604 8.048-6.626 3.263-2.338 6.63-4.563 10.12-6.534C30.388-.24 34.55-.173 38.749.208c3.086.28 6.218.42 9.305.229 7.19-.446 13.242 1.84 18.172 7.114 1.588 1.698 3.085 3.484 4.609 5.244 5.042 5.821 7.001 12.75 7.274 20.328.09 2.537.46 5.064.714 7.595.886 8.867-2.355 16.092-8.987 21.685-5.347 4.508-11.222 8.262-17.874 10.622-6.418 2.277-13.011 3.285-19.686 1.862-3.482-.742-6.948-2.071-10.106-3.743-5.617-2.973-10.686-6.684-12.774-13.259-.295-.93-.98-1.898-1.755-2.485C1.153 50.484-.565 43.72.156 35.8m34.382 11.46h.011c0 1.512-.018 3.024.004 4.537.091 6.221-.935 5.245 5.454 5.434 2.087.062 2.712-.638 2.659-2.71-.127-4.947.013-9.9-.056-14.85-.024-1.702.613-2.408 2.277-2.283.744.055 1.53.112 2.236-.07.502-.128 1.223-.598 1.293-1.014.264-1.535.524-3.153.253-4.642-.065-.352-2.198-.333-3.381-.461-.473-.052-.97.033-1.424-.078-.361-.088-.803-.296-.989-.592-1.666-2.65.237-6.24 3.344-6.367 2.926-.12 2.927-.12 2.923-3.042-.001-.549.154-1.188-.069-1.627-.286-.563-.889-1.377-1.343-1.368-2.777.053-5.579.129-8.318.551-2.338.36-3.915 2.005-4.398 4.355-.357 1.73-.4 3.536-.46 5.313-.094 2.718-.079 2.834-2.75 2.82-1.61-.008-2.266.593-2.099 2.187.05.476.058.968-.002 1.442-.243 1.929.478 2.857 2.49 2.623 1.765-.205 2.437.647 2.37 2.417-.095 2.472-.025 4.95-.025 7.424" fill="#FF6C6B" fill-rule="nonzero" mask="url(#b)"/></g><path d="M34.031 47.424c0-2.474-.087-4.952.029-7.424" fill="#FFF" fill-rule="nonzero"/></g></svg>