<?xml version="1.0" encoding="UTF-8"?>
<svg width="861px" height="693px" viewBox="0 0 861 693" version="1.1" xmlns="http://www.w3.org/2000/svg" xmlns:xlink="http://www.w3.org/1999/xlink">
    <!-- Generator: Sketch 51.3 (57544) - http://www.bohemiancoding.com/sketch -->
    <title>black-arm-flask</title>
    <desc>Created with Sketch.</desc>
    <defs>
        <polygon id="path-1" points="0 0.964 792.175 0.964 792.175 925.358 0 925.358"></polygon>
    </defs>
    <g id="Page-1" stroke="none" stroke-width="1" fill="none" fill-rule="evenodd">
        <g id="black-arm-flask">
            <path d="M817.467,16.988 L817.442,16.949 C816.092,14.836 816.775,12.073 818.983,10.883 C824.244,8.048 828.788,4.263 833.675,0.79 C835.308,-0.37 837.559,-0.25 839.009,1.131 C847.489203,9.21277011 854.732924,18.4994098 860.507,28.692 C861.439,30.339 861.112,32.418 859.763,33.743 L848.826,44.491 C846.726,46.556 843.241,48.509 840.906,47.692 C839.564,47.222 838.086,47.167 836.95,48.023 C819.043,61.535 812.16,85.423 799.98,104.573 C785.573,127.218 763.28,143.585 740.722,158.13 C718.165,172.674 694.553,186.156 675.507,205.066 C669.49,211.04 663.882,217.593 656.698,222.096 C649.514,226.6 640.181,228.768 632.511,225.156 C627.975,223.018 624.536,219.143 621.312,215.297 C613.480208,205.961895 606.056579,196.291826 599.062,186.314 C596.07,182.042 593.15,177.521 592.35,172.38 C591.036,163.935 595.821,155.547 602.203,149.864 C608.586,144.181 616.477,140.546 623.841,136.209 C663.696,112.733 688.793,68.217 730.721,48.682 C758.512,35.734 792.492,35.759 817.487,16.976" id="Shape" fill="#FF6C6B" fill-rule="nonzero"></path>
            <path d="M644.368,159.69 C639.428,146.58 634.85,132.738 633.458,118.734 C632.958,113.711 632.524,107.294 635.514,102.884 C638.578,98.363 644.374,99.318 648.794,101.01 C650.719,101.747 652.572,102.662 654.373,103.659 C653.453,103.149 653.786,94.468 653.775,93.199 C653.743,89.872 653.889,86.329 654.903,83.136 C655.553,81.088 656.709,79.133 658.476,77.911 C661.455,75.85 665.123,76.267 668.394,77.311 C670.738,78.063 673.366,81.241 676.013,80.711 C678.151,80.281 678.548,75.304 679.936,73.727 C681.94,71.449 685.672,70.209 688.641,69.237 C693.757,67.563 696.428,71.99 700.03,74.427 C700.689,74.872 701.556,75.089 702.292,74.787 C705.634,73.413 703.659,65.375 706.259,62.693 C712.598,56.156 722.539,63.509 725.038,70.012 C726.908,74.874 727.651,80.188 729.275,85.152 C730.392,88.569 731.629,91.96 733.033,95.271 C733.603,96.618 734.19,98.015 735.003,99.238 C735.702,100.292 736.296,101.475 737.406,102.176 C738.92,103.134 741.665,103.025 742.131,100.924 C742.331,100.018 742.081,99.079 741.815,98.19 C740.135,92.607 737.338,87.734 734.917,82.482 C733.751,79.952 732.471,76.95 732.771,74.102 C733.046,71.504 734.745,69.198 736.919,67.749 C738.904,66.425 742.203,65.019 744.605,65.489 C746.945,65.948 748.854,67.418 750.392,69.185 C756.379,76.063 758.957,86.18 761.066,94.824 C762.918,102.414 764.734,110.504 764.834,118.36 C764.926,125.564 762.694,133.07 760.339,139.806 C757.658,147.474 754.188,154.838 751.508,162.506 C750.447,165.546 754.313,179.87 755.368,187.129 L684.826,217.259 C682.571,213.995 675.691,198.866 674.946,198.146 C672.202,195.493 669.348,192.959 666.521,190.398 C661.016,185.41 655.588,180.256 651.366,174.103 C648.262,169.578 646.285,164.779 644.368,159.69" id="Shape" fill="#E7AA6B" fill-rule="nonzero"></path>
            <g id="Clipped" transform="translate(0.000000, 175.000000)">
                <mask id="mask-2" fill="white">
                    <use xlink:href="#path-1"></use>
                </mask>
                <g id="a"></g>
                <path d="M-303.561,925.358 L-322,817.365 C-262.802,807.257 -223.27,782.921 -193.819,738.452 C-165.168,695.194 -149.347,638.096 -132.596,577.642 C-103.521,472.72 -70.57,353.798 42.74,288.778 C95.302,258.615 150.81,248.568 212.427,258.058 C262.583,265.786 309.295,285.197 354.467,303.966 C411.551,327.686 465.47,350.093 516.661,344.613 C578.803,337.963 624.376,312.516 652.113,268.977 C688.93,211.189 692.966,124.259 662.914,36.436 L766.566,0.965 C807.307,120.017 799.062,242.215 744.511,327.842 C698.635,399.851 623.875,443.319 528.317,453.546 C449.285,462.003 376.578,431.79 312.428,405.135 C221.685,367.428 162.745,346.224 97.265,383.798 C22.988,426.42 -1.301,514.085 -27.02,606.896 C-45.315,672.923 -64.232,741.199 -102.481,798.946 C-148.749,868.804 -214.522,910.153 -303.561,925.358" id="Shape" fill="#4ECDC4" fill-rule="nonzero" mask="url(#mask-2)"></path>
            </g>
        </g>
    </g>
</svg>