<svg width="608" height="258" xmlns="http://www.w3.org/2000/svg"><g fill="none" fill-rule="evenodd"><path d="M173 147.44c-5.3-5.584-7.534-9.695-7.558-19.16-.024-9.177 2.315-18.401.594-27.493-1.495-7.893-3.857-12.311-10.486-16.758-8.147-5.467-14.267-12.35-21.74-18.628-6.97-5.854-14.872-7.968-23.542-10.46-3.183-.921-18.572-7.592-21.35-5.557-7.982 5.863 12.212 16.343 14.574 17.528 5.215 2.624 12.646 3.72 13.405 8.643 1.353 8.795-.066 11.405 4.847 20.474.712 1.317-.01 4.744-1.683 7.406-1.245 1.973-5.456-.698-7.096-1.496-3.97-1.931-39.097-34.182-38.965-14.526.029 3.734 12.41 14.063 15.23 17.056 5.568 5.915 12.74 10.754 17.643 17.292 10.156 13.538 17.95 28.342 29.327 41.206 3.593 4.055 7.204 8.058 10.807 12.033L173 147.44" fill="#E8AA6B"/><path d="M608 162.907c-38.499-41.839-75.554-59.045-113.282-52.588-32.286 5.526-57.528 27.497-79.808 46.887-11.809 10.272-22.96 19.977-33.573 26.004-74.84 42.505-159.919 21.772-206.9-50.41L130 161.679c30.247 46.471 74.797 78.757 125.446 90.91 50.313 12.078 104.326 3.787 152.088-23.332 15.23-8.65 28.937-20.582 42.194-32.12 18.67-16.252 36.313-31.6 53.932-34.616 27.631-4.723 55.995 26.097 65.316 36.232L608 162.907" fill="#458F66"/><path d="M7.164 71.608c2.056-1.36 4.156-2.653 6.188-4.046 1.191-.817 2.285-1.778 3.648-2.854-.107-.413-.103-1.043-.415-1.394-.542-.6-1.177-.225-1.744.173-2.97 2.076-5.924 4.161-8.918 6.194-.684.466-1.22.922-.737 1.72.508.836 1.235.692 1.978.207M34.5 15.853c.283-.376.566-.973.486-1.408-.684-3.898-2.447-7.396-4.036-10.951-.146-.318-.953-.592-1.302-.46-.325.132-.5.802-.636 1.267-.061.2.132.484.217.724 1.221 3.35 2.442 6.7 3.673 10.046.108.293.311.552.538.929.377-.04.9.059 1.06-.147M54.09 12.703c.105-.44.2-.683.225-.93.3-3.412.61-6.825.88-10.238.06-.77-.105-1.53-1.13-1.535-1.055-.005-1.165.726-1.21 1.569-.17 2.885-.395 5.765-.615 8.646-.045.571-.315 1.162-.22 1.699.065.402.475.9.86 1.055.33.126.835-.17 1.21-.266M77.21 13.246c-.669.407-1.307.876-1.903 1.383-2.066 1.753-4.102 3.53-6.307 5.434.144.626.1 1.294.413 1.635.528.564 1.153.251 1.69-.227 2.436-2.132 4.89-4.246 7.336-6.363.514-.446.759-.957.37-1.587-.413-.669-1.033-.616-1.6-.275M18.627 29.677c.492-.488.501-1.045.004-1.56-.22-.227-.43-.469-.678-.659-1.557-1.216-3.13-2.413-4.692-3.62l-.067.079c-.692-.492-1.39-.98-2.078-1.476-.63-.45-1.276-.729-1.854.042-.587.775-.09 1.285.535 1.726 1.615 1.147 3.259 2.26 4.855 3.43.821.604 1.572 1.304 2.36 1.95.516.431 1.084.617 1.615.088M48.515 82.18c-.305.266-.585.842-.5 1.2.75 3.25 1.56 6.49 2.405 9.716.21.799 1.01 1.114 1.67.76.68-.368.685-.935.515-1.603-.785-3.056-1.525-6.122-2.3-9.178-.085-.334-.305-.625-.525-1.075-.465.053-1.01-.044-1.265.18M31.529 77.135c-.727-.285-1.268-.138-1.631.626-.713 1.505-1.52 2.967-2.19 4.49-.616 1.424-1.138 2.89-1.632 4.362-.214.645.019 1.234.764 1.362.658.109 1.166-.128 1.329-.873.074-.342.163-.693.307-1.016 1.086-2.383 2.163-4.765 3.286-7.138.326-.688.377-1.267-.233-1.813M7.15 48.644c1.268.03 2.542-.035 3.797-.21.389-.05.85-.54 1.021-.945.126-.3-.156-.785-.263-1.205-.437-.05-.714-.12-.996-.105-.832.035-1.668.17-2.495.14-2.222-.07-4.43-.215-6.647-.315-.802-.04-1.532.18-1.566 1.14-.034.87.56 1.185 1.372 1.215 1.93.07 3.846.245 5.776.285M86.355 33.556c-2.007.365-4.019.68-6.026 1.025-.74.125-1.388.465-1.325 1.34.064.955.804 1.045 1.544.95 1.189-.145 2.387-.28 3.566-.51 1.68-.33 3.356-.695 5.008-1.15.36-.105.73-.6.862-.995.088-.29-.205-.715-.341-1.11-.429-.045-.755-.145-1.057-.09-.75.145-1.476.4-2.231.54M88.447 64.547c.717-1.425 1.149-3.003 1.58-4.547.761.257 1.498.591 1.973.934a2.863 2.863 0 0 0-.082.424c-.083.815-.112 1.654-.35 2.43-1.832 5.987-5.065 11.1-9.923 15.184-1.701 1.43-2.05 1.411-3.456-.328-.068-.081-.107-.177-.189-.31.858-.739 1.692-1.378 2.424-2.107 3.398-3.407 5.895-7.439 8.023-11.68" fill="#E07E7C"/><path d="M82 80.837c.14-.177.255-.397.436-.542 3.55-2.896 6.157-6.527 8.212-10.6 1.23-2.444 2.162-4.967 2.46-7.695.63.13 1.488.44 1.892 1.14a2.465 2.465 0 0 0-.084.528c-.05.761-.139 1.542-.338 2.275-1.73 6.214-5.08 11.38-10.04 15.473-1.095.907-1.457.79-2.538-.579M99.667 68.017c-1.472 6.228-4.777 11.325-9.842 15.323-1.285 1.016-1.834.896-2.825-.617.687-.621 1.398-1.233 2.074-1.883 3.305-3.194 5.689-7.014 7.45-11.16.754-1.783 1.063-3.748 1.456-5.68.79.154 1.839.554 2.02 1.546a1.463 1.463 0 0 0-.127.545c-.025.645-.064 1.305-.206 1.926M63.63 23.03c5.856 4.724 9.42 10.903 11.554 18.035.858 2.878 1.94 5.738 3.312 8.412a21.931 21.931 0 0 0 7.371 8.285c.21.137.42.28.644.393 1.686.882 1.705.887 1.2 2.76-.2.745-.52 1.46-.895 2.509-1.95-1.248-3.64-2.376-5.37-3.438-2.883-1.783-5.756-3.6-8.706-5.274-1.93-1.095-3.898-2.323-6.337-1.593-.157.048-.443-.147-.605-.294-2.826-2.608-5.652-5.216-8.434-7.857-.181-.166-.172-.712-.043-.982.843-1.83 1.41-3.704 1.244-5.757-.162-2.049-2.159-4.586-4.127-5.155-2.42-.701-4.97 1.39-5.017 4.121-.034 2.134 1.02 3.799 2.396 5.297.744.811 1.54 1.565 2.445 2.485-.834.735-1.634 1.442-2.506 2.224-.715-2.229-1.682-4.045-3.536-5.283-2.068-1.365-4.079-1.11-5.59.76-1.453 1.801-1.243 4.148.449 5.746 1.482 1.395 3.264 1.826 5.222 1.783.381-.004.762-.023 1.31-.042-.262.958-.495 1.82-.676 2.485-2.225-.342-4.28-.816-6.352-.94-2.692-.165-5.003 1.831-5.208 4.207-.233 2.74 2.035 4.974 5.06 4.98 3.036.004 5.051-1.651 6.61-4.046.27-.417.543-.835.895-1.375 1.773.744 3.583 1.465 5.37 2.252 1.792.792 3.555 1.66 5.342 2.471.743.337 1.262.726 1.41 1.655.267 1.664 1.5 2.712 2.845 3.557 4.436 2.802 8.91 5.557 13.365 8.331.305.185.596.38 1.106.707-1.154.887-2.183 1.721-3.274 2.475-.21.142-.696.067-.967-.08-1.349-.721-2.664-1.518-4.012-2.248-4.303-2.352-8.882-2.632-13.618-1.816-4.717.81-9.43 1.602-14.262 1.399-9.567-.403-19.75-8.038-22.07-17.802-1.73-7.26-1.835-14.478 1.643-21.43 3.04-6.093 7.734-10.385 13.823-13.272 3.989-1.897 8.11-3.344 12.58-3.633 5.513-.36 10.22 1.617 14.409 4.989" fill="#E07E7C"/><path d="M51.46 48.752c1.101-.962 2.337-1.776 3.653-2.752 2.872 2.632 5.844 5.351 8.887 8.136L61.439 58C57.67 56.354 53.845 54.694 50 53.016c.038-.205.033-.242.052-.27.735-1.25.215-2.947 1.408-3.994M43.758 46.758c-1.008-.89-1.008-1.976-.014-3.123.709-.825 1.84-.848 2.84-.06 1.146.909 2.05 2.442 2.416 4.231-1.95.378-3.72.29-5.242-1.048M63.362 59.505c.761-1.443 1.685-2.812 2.647-4.14.2-.276.938-.45 1.302-.322 1.44.489 2.92.968 4.226 1.72 4.374 2.512 8.677 5.134 13.008 7.72.12.07.22.166.455.341-1.594 2.379-3.13 4.697-4.72 6.984-.123.18-.712.253-.942.133-1.56-.857-3.087-1.76-4.614-2.668-2.9-1.729-5.79-3.458-8.677-5.21a15.564 15.564 0 0 1-1.976-1.419c-1.106-.95-1.379-1.871-.709-3.139M54.697 43c-1.496-1.403-3.17-2.708-3.625-4.862-.137-.634-.09-1.488.246-2 .724-1.097 1.467-1.571 2.73-.647 1.358.995 2.186 2.328 1.893 4.074-.19 1.154-.54 2.28-.823 3.416-.138.005-.28.014-.421.019M48 54.763c-1.525 2.293-2.883 4.131-5.672 4.234-1.874.07-3.242-.924-3.325-2.47-.074-1.23 1.313-2.585 2.971-2.525 1.918.074 3.822.469 6.026.761M96.564 79.865c-.54-.284-.725-.905-.41-1.391l1.895-2.963c.31-.486 1.01-.657 1.545-.374.54.28.73.905.415 1.396l-1.9 2.958c-.31.486-1.005.653-1.545.374" fill="#E07E7C"/></g></svg>