<svg width="707" height="374" xmlns="http://www.w3.org/2000/svg" xmlns:xlink="http://www.w3.org/1999/xlink"><defs><path id="a" d="M.17.131h674.44V203H.169z"/><path id="c" d="M.887.928h4.66V18.82H.887z"/><path id="e" d="M0 .718h16.475V4.5H0z"/></defs><g fill="none" fill-rule="evenodd"><path d="M240.774 213.274c-7.3-8.097-10.315-13.994-9.997-27.384.31-12.977 3.96-25.933 1.86-38.86-1.823-11.217-5.002-17.55-14.222-24.087-11.334-8.034-19.749-17.992-30.098-27.15-9.646-8.537-20.757-11.822-32.952-15.671-4.469-1.41-26.012-11.42-30.014-8.642-11.527 7.997 16.685 23.56 19.983 25.326 7.288 3.902 17.765 5.729 18.657 12.718 1.595 12.49-.509 16.132 6.11 29.137.963 1.893-.193 6.709-2.662 10.41-1.83 2.745-7.692-1.187-9.99-2.38-5.547-2.88-54.092-49.788-54.63-21.988-.102 5.285 17.05 20.352 20.928 24.69 7.668 8.57 17.637 15.68 24.34 25.109 13.88 19.525 24.37 40.748 40.008 59.362 4.933 5.87 9.895 11.66 14.852 17.424l37.827-38.014z" fill="#E7AA6B" fill-rule="nonzero"/><g transform="translate(179 171.072)"><mask id="b" fill="#fff"><use xlink:href="#a"/></mask><path d="M516.704 1.469C461.907 25.94 423.792 47.03 402.358 64.735c-17.039 14.076-33.134 27.37-48.334 35.493-107.17 57.259-226.458 24.84-290.084-78.836L.17 60.529C41.131 127.277 102.8 174.523 173.82 193.56c70.547 18.914 147.067 9.204 215.464-27.338 21.813-11.655 41.596-27.997 60.727-43.801 26.951-22.263 52.406-43.292 77.385-46.898L516.704 1.469z" fill="#4DC9C0" fill-rule="nonzero" mask="url(#b)"/></g><path d="M10.098 100.031c2.863-1.81 5.78-3.537 8.607-5.402 1.659-1.093 3.186-2.386 5.092-3.832-.139-.579-.104-1.453-.518-1.948-.72-.858-1.6-.357-2.39.175-4.13 2.78-8.25 5.572-12.42 8.288-.95.62-1.7 1.234-1.066 2.363.663 1.183 1.665 1.007 2.695.356M50.532 21.5c.421-.506.837-1.308.742-1.907-.832-5.353-3.2-10.192-5.326-15.099-.19-.44-1.327-.844-1.82-.673-.468.161-.738 1.075-.953 1.707-.09.266.171.66.287.99 1.61 4.62 3.214 9.24 4.84 13.854.142.404.423.76.726 1.287.535-.04 1.276.114 1.504-.159" fill="#FF6C6B" fill-rule="nonzero"/><g transform="translate(74 -.928)"><mask id="d" fill="#fff"><use xlink:href="#c"/></mask><path d="M3.643 18.445c.16-.606.291-.935.33-1.273C4.5 12.476 5.032 7.78 5.52 3.079c.11-1.057-.085-2.11-1.452-2.15-1.409-.042-1.58.953-1.676 2.118-.324 3.97-.73 7.937-1.132 11.9-.08.789-.458 1.59-.357 2.34.075.555.606 1.256 1.116 1.482.432.19 1.125-.206 1.623-.324" fill="#FF6C6B" fill-rule="nonzero" mask="url(#d)"/></g><path d="M110.76 19.432a20.641 20.641 0 0 0-2.7 1.88c-2.93 2.392-5.825 4.824-8.961 7.429.174.888.087 1.826.515 2.319.708.814 1.585.39 2.357-.261 3.46-2.917 6.947-5.802 10.427-8.697.729-.607 1.09-1.32.57-2.225-.55-.961-1.414-.904-2.208-.445m-83.369 21.16c.698-.678.742-1.48.06-2.244-.298-.332-.582-.685-.92-.971-2.133-1.803-4.28-3.59-6.42-5.382l-.099.115c-.949-.732-1.9-1.462-2.849-2.198-.864-.671-1.752-1.1-2.59-.013-.846 1.095-.169 1.852.682 2.508 2.216 1.707 4.466 3.37 6.655 5.112 1.127.898 2.151 1.926 3.223 2.892.706.636 1.491.924 2.258.18m39.962 74.957c-.418.354-.81 1.142-.71 1.643.89 4.505 1.845 8.996 2.863 13.474.251 1.11 1.306 1.567 2.198 1.104.925-.481.947-1.264.744-2.188-.933-4.242-1.814-8.495-2.74-12.738-.1-.456-.377-.873-.657-1.5-.628.056-1.35-.09-1.698.205m-23.315-6.864c-1.036-.426-1.811-.235-2.36.822-1.081 2.086-2.29 4.11-3.298 6.23-.94 1.976-1.741 4.024-2.501 6.078-.335.903-.025 1.74 1.043 1.944.932.179 1.672-.134 1.934-1.178.12-.483.264-.972.483-1.416 1.638-3.314 3.274-6.628 4.962-9.917.493-.958.59-1.774-.263-2.563" fill="#FF6C6B" fill-rule="nonzero"/><g transform="translate(0 63.072)"><mask id="f" fill="#fff"><use xlink:href="#e"/></mask><path d="M9.762 4.46c1.74.082 3.5.043 5.23-.144.534-.058 1.18-.693 1.43-1.226.188-.397-.184-1.056-.314-1.626-.6-.08-.982-.18-1.365-.172-1.146.018-2.296.168-3.438.101C8.267 1.218 5.235.948 2.2.731 1.098.65.085.919.004 2.199-.07 3.359.734 3.8 1.85 3.87c2.64.166 5.271.467 7.912.591" fill="#FF6C6B" fill-rule="nonzero" mask="url(#f)"/></g><path d="M121.965 49.469c-2.762.413-5.533.764-8.298 1.154-1.02.143-1.92.568-1.864 1.742.06 1.276 1.064 1.422 2.084 1.324 1.64-.158 3.285-.288 4.909-.554 2.314-.38 4.62-.811 6.898-1.361.498-.12 1.024-.771 1.214-1.295.139-.383-.25-.958-.42-1.494-.59-.072-1.035-.223-1.446-.157-1.033.165-2.043.487-3.077.64m1.693 42.876c1.037-1.973 1.688-4.163 2.35-6.314 1.03.39 2.035.882 2.671 1.383-.05.188-.097.379-.124.586-.139 1.138-.213 2.315-.568 3.392-2.744 8.32-7.386 15.366-14.224 20.916-2.39 1.942-2.876 1.904-4.747-.585-.087-.116-.147-.252-.254-.437 1.208-1.007 2.381-1.867 3.417-2.868 4.811-4.648 8.395-10.205 11.48-16.073" fill="#FF6C6B" fill-rule="nonzero"/><path d="M114.88 115.645c.208-.246.39-.555.652-.757 5.217-4.008 9.107-9.097 12.213-14.846 1.86-3.441 3.293-7.01 3.828-10.896.904.208 2.128.68 2.68 1.697-.07.222-.12.47-.144.746-.095 1.09-.25 2.2-.572 3.243-2.718 8.818-7.731 16.073-15.016 21.736-1.612 1.253-2.134 1.075-3.641-.923" fill="#FF6C6B" fill-rule="nonzero"/><path d="M139.123 98.438c-2.221 8.577-6.913 15.519-13.952 20.88-1.788 1.36-2.527 1.178-3.824-.95.955-.838 1.947-1.662 2.89-2.542 4.615-4.302 8-9.513 10.548-15.2 1.093-2.444 1.588-5.161 2.192-7.816 1.064.236 2.48.828 2.693 2.207a1.991 1.991 0 0 0-.193.752c-.06.895-.13 1.807-.354 2.669M90.23 33.025c8.034 6.863 12.795 15.694 15.522 25.813 1.101 4.086 2.507 8.155 4.333 11.964 2.286 4.765 5.65 8.827 10.024 11.938.286.203.575.406.882.576 2.334 1.3 2.363 1.307 1.584 3.929-.31 1.042-.777 2.036-1.347 3.503-2.685-1.836-5.014-3.48-7.394-5.044-3.979-2.616-7.936-5.274-12.007-7.741-2.664-1.616-5.375-3.413-8.817-2.477-.226.062-.615-.221-.837-.437-3.862-3.771-7.723-7.544-11.53-11.37-.243-.242-.215-1.004-.027-1.383 1.257-2.548 2.114-5.164 1.96-8.061-.154-2.89-2.858-6.533-5.593-7.408-3.365-1.075-7.012 1.77-7.18 5.619-.132 3.008 1.287 5.386 3.161 7.549 1.008 1.164 2.097 2.259 3.331 3.579l-3.595 3.04c-.916-3.16-2.202-5.755-4.76-7.56-2.84-2.002-5.669-1.718-7.855.862-2.104 2.48-1.897 5.797.42 8.108 2.022 2.018 4.501 2.69 7.247 2.704.537.002 1.071-.01 1.832-.016-.397 1.336-.755 2.544-1.033 3.475-3.108-.565-5.967-1.308-8.868-1.561-3.763-.33-7.078 2.4-7.448 5.74-.426 3.844 2.666 7.072 6.904 7.192 4.257.12 7.142-2.14 9.413-5.454l1.301-1.903c2.46 1.11 4.97 2.197 7.44 3.37 2.484 1.182 4.921 2.463 7.394 3.67 1.03.504 1.738 1.072 1.913 2.385.314 2.352 2.006 3.874 3.854 5.114 6.118 4.108 12.281 8.148 18.426 12.216.414.273.822.559 1.518 1.036-1.646 1.204-3.122 2.344-4.675 3.365-.299.196-.98.068-1.35-.143-1.869-1.067-3.678-2.238-5.537-3.322-5.944-3.463-12.35-4.027-19.022-3.054-6.638.967-13.267 1.91-20.03 1.447-13.39-.913-27.375-12.04-30.268-25.87C27.364 68.13 27.482 57.968 32.61 48.3c4.49-8.462 11.218-14.333 19.856-18.176 5.66-2.52 11.492-4.41 17.755-4.652 7.74-.301 14.27 2.652 20.01 7.553" fill="#FF6C6B" fill-rule="nonzero"/><path d="M73.35 69.466c1.578-1.343 3.344-2.468 5.215-3.824 3.93 3.887 7.983 7.9 12.133 12.005-1.295 1.894-2.5 3.659-3.729 5.455L71.152 75.53c.056-.293.052-.35.077-.39 1.075-1.761.416-4.223 2.121-5.674m-10.857-3.508c-1.385-1.312-1.346-2.868.095-4.477 1.028-1.15 2.621-1.143 3.989.018 1.58 1.34 2.784 3.576 3.232 6.152-2.752.47-5.234.278-7.316-1.693m27.259 18.619c1.118-2.057 2.456-4.005 3.844-5.893.292-.397 1.327-.616 1.832-.423 1.992.761 4.04 1.511 5.829 2.643 6.006 3.798 11.909 7.757 17.849 11.658.166.108.308.249.629.514-2.316 3.389-4.546 6.693-6.851 9.944-.18.253-1.01.342-1.325.152-2.142-1.29-4.236-2.661-6.33-4.032a1598.096 1598.096 0 0 1-11.902-7.858 21.09 21.09 0 0 1-2.707-2.128c-1.506-1.415-1.853-2.765-.868-4.577M77.763 60.838c-2.065-2.054-4.376-3.97-4.94-7.052-.166-.907-.069-2.12.426-2.837 1.056-1.532 2.124-2.18 3.876-.814 1.876 1.465 2.998 3.391 2.52 5.866-.316 1.63-.855 3.217-1.291 4.823l-.591.014M67.358 76.809c-2.153 3.24-4.063 5.834-7.856 5.885-2.545.034-4.359-1.444-4.423-3.67-.05-1.772 1.888-3.675 4.131-3.526 2.597.172 5.167.808 8.148 1.31m68.437 37.599a1.517 1.517 0 0 1-.5-2.08l2.652-4.326a1.517 1.517 0 0 1 2.079-.5c.71.435.935 1.371.5 2.08l-2.651 4.327a1.517 1.517 0 0 1-2.08.5" fill="#FF6C6B" fill-rule="nonzero"/></g></svg>