<svg width="79" height="76" xmlns="http://www.w3.org/2000/svg" xmlns:xlink="http://www.w3.org/1999/xlink"><defs><path id="a" d="M0 0h78.608v75.24H0z"/><path d="M54.808 38.124c0 3.851.033 7.703-.009 11.553-.039 3.538-1.364 4.86-4.813 4.87-7.118.018-14.238.027-21.357.017-4.327-.007-5.617-1.3-5.62-5.584-.007-7.358-.017-14.717.004-22.075.009-3.397 1.281-4.817 4.65-4.85 7.524-.076 15.05-.073 22.575.008 3.286.036 4.534 1.426 4.562 4.714.033 3.783.008 7.565.008 11.348zM38.989 51.228v.02c3.322 0 6.648.103 9.961-.068.882-.045 2.442-.887 2.468-1.423.206-4.32.16-8.654.051-12.981-.01-.402-1.001-.777-1.537-1.166-.352.524-.904 1.01-1.011 1.581-.186.991.074 2.076-.15 3.052-1.178 5.122-6.007 8.617-10.864 7.958-5.436-.737-8.9-4.905-8.746-10.544.025-.956.327-1.998-1.188-2.074-1.574-.08-1.739.898-1.732 2.128.018 3.506-.007 7.013.004 10.52.008 2.478.318 2.9 2.781 2.973 3.32.098 6.642.024 9.963.024zm.05-6.52c3.51.024 6.636-2.84 6.725-6.158.098-3.687-2.934-6.788-6.711-6.865-3.544-.072-6.628 2.912-6.628 6.414-.001 3.787 2.797 6.584 6.614 6.61zM51.59 28.845c.014-3.156-.351-3.552-3.278-3.562-3.13-.01-3.683.511-3.685 3.472-.002 2.832.652 3.482 3.517 3.5 3.024.019 3.432-.386 3.446-3.41z" id="c"/></defs><g fill="none" fill-rule="evenodd"><g transform="translate(0 .067)"><mask id="b" fill="#fff"><use xlink:href="#a"/></mask><path d="M.194 35.93c-1.132-8.072 2.86-14.332 7.519-20.025 2.63-3.217 6.24-5.69 9.662-8.133 3.469-2.478 7.076-4.907 10.942-6.614 3.397-1.5 7.258-1.25 11.011-.86 2.802.29 5.67.477 8.462.206 7.145-.693 13.037 1.776 17.971 6.821 1.903 1.945 3.539 4.158 5.322 6.227 4.502 5.22 6.15 11.499 6.643 18.224.215 2.946.512 5.887.765 8.83.84 9.75-2.863 17.353-10.49 23.197-6.117 4.688-12.601 8.775-20.12 10.442-4.302.952-8.877 1.121-13.297.92-7.793-.35-14.155-4.505-19.959-9.329-1.995-1.657-3.092-4.43-4.582-6.707-.886-1.354-1.459-3.094-2.652-4.04-5.414-4.287-7.367-9.98-7.2-16.682.02-.825.003-1.651.003-2.476" fill="#FF6C6B" fill-rule="nonzero" mask="url(#b)"/></g><use fill="#292F36" fill-rule="nonzero" xlink:href="#c"/></g></svg>