<svg width="94" height="87" viewBox="0 0 94 87" fill="none" xmlns="http://www.w3.org/2000/svg">
<g clip-path="url(#clip0_2_85)">
<path d="M62.8081 46.124C62.8081 49.975 62.8411 53.827 62.7991 57.677C62.7601 61.215 61.4351 62.537 57.9861 62.547C50.8681 62.565 43.7481 62.574 36.6291 62.564C32.3021 62.557 31.0121 61.264 31.0091 56.98C31.0021 49.622 30.9921 42.263 31.0131 34.905C31.0221 31.508 32.2941 30.088 35.6631 30.055C43.1871 29.979 50.7131 29.982 58.2381 30.063C61.5241 30.099 62.7721 31.489 62.8001 34.777C62.8331 38.56 62.8081 42.342 62.8081 46.125V46.124ZM46.9891 59.228V59.248C50.3111 59.248 53.6371 59.351 56.9501 59.18C57.8321 59.135 59.3921 58.293 59.4181 57.757C59.6241 53.437 59.5781 49.103 59.4691 44.776C59.4591 44.374 58.4681 43.999 57.9321 43.61C57.5801 44.134 57.0281 44.62 56.9211 45.191C56.7351 46.182 56.9951 47.267 56.7711 48.243C55.5931 53.365 50.7641 56.86 45.9071 56.201C40.4711 55.464 37.0071 51.296 37.1611 45.657C37.1861 44.701 37.4881 43.659 35.9731 43.583C34.3991 43.503 34.2341 44.481 34.2411 45.711C34.2591 49.217 34.2341 52.724 34.2451 56.231C34.2531 58.709 34.5631 59.131 37.0261 59.204C40.3461 59.302 43.6681 59.228 46.9891 59.228V59.228ZM47.0391 52.708C50.5491 52.732 53.6751 49.868 53.7641 46.55C53.8621 42.863 50.8301 39.762 47.0531 39.685C43.5091 39.613 40.4251 42.597 40.4251 46.099C40.4241 49.886 43.2221 52.683 47.0391 52.709V52.708ZM59.5901 36.845C59.6041 33.689 59.2391 33.293 56.3121 33.283C53.1821 33.273 52.6291 33.794 52.6271 36.755C52.6251 39.587 53.2791 40.237 56.1441 40.255C59.1681 40.274 59.5761 39.869 59.5901 36.845V36.845Z" fill="#292F36"/>
<path fill-rule="evenodd" clip-rule="evenodd" d="M15.713 23.9722C11.054 29.6652 7.06205 35.9252 8.19405 43.9972V43.9982C8.19405 44.2578 8.19573 44.5176 8.19742 44.7775C8.20109 45.3431 8.20475 45.9088 8.19105 46.4742C8.02405 53.1762 9.97705 58.8692 15.391 63.1562C16.1878 63.788 16.708 64.7739 17.2296 65.7625C17.489 66.2542 17.7488 66.7465 18.043 67.1962C18.4986 67.8924 18.9175 68.635 19.3365 69.3779C20.2879 71.0646 21.2401 72.7528 22.625 73.9032C28.429 78.7271 34.791 82.8822 42.584 83.2322C47.0041 83.4332 51.579 83.2642 55.8811 82.3122C63.4001 80.6452 69.884 76.5582 76.001 71.8702C83.628 66.0262 87.331 58.4232 86.491 48.6732C86.4028 47.6464 86.3091 46.6198 86.2155 45.5932C86.0408 43.6773 85.866 41.7613 85.726 39.8432C85.233 33.1182 83.585 26.8392 79.083 21.6192C78.4544 20.8897 77.844 20.1423 77.2338 19.3951C76.1132 18.023 74.9931 16.6514 73.761 15.3922C68.827 10.3472 62.9351 7.87816 55.7901 8.57116C52.9981 8.84216 50.1301 8.65516 47.328 8.36516C43.5751 7.97516 39.714 7.72516 36.317 9.22516C32.451 10.9322 28.844 13.3612 25.375 15.8392C25.1451 16.0033 24.9144 16.1676 24.6831 16.3322C21.4724 18.6178 18.1664 20.9713 15.713 23.9722Z" fill="#FF6C6B"/>
</g>
<g clip-path="url(#clip1_2_85)">
<path d="M66.1846 56.9343C66.264 56.9351 66.3427 56.9194 66.4159 56.888C66.489 56.8567 66.555 56.8104 66.6098 56.7522C66.6646 56.6939 66.707 56.6248 66.7343 56.5492C66.7617 56.4736 66.7734 56.3931 66.7689 56.3127C66.7689 55.8718 66.5067 55.6612 65.9688 55.6612H65.0996V57.9694H65.4265V56.9632H65.8282L65.8374 56.9754L66.4608 57.9694H66.8104L66.1397 56.9407L66.1846 56.9343ZM65.8065 56.7031H65.4275V55.9228H65.9079C66.1561 55.9228 66.4391 55.9639 66.4391 56.2936C66.4391 56.6727 66.1527 56.7031 65.8046 56.7031" fill="#292F36"/>
<path d="M57.6567 54.0417H53.0211V46.6773C53.0211 44.9212 52.9902 42.6605 50.6101 42.6605C48.1957 42.6605 47.8263 44.5739 47.8263 46.5495V54.0412H43.1907V38.897H47.6409V40.9666H47.7032C48.1486 40.1942 48.7921 39.5587 49.5653 39.1279C50.3385 38.6971 51.2125 38.4871 52.094 38.5203C56.7924 38.5203 57.6587 41.6554 57.6587 45.7339L57.6567 54.0417ZM37.9602 36.8269C37.4281 36.827 36.908 36.667 36.4655 36.3673C36.0231 36.0675 35.6783 35.6413 35.4746 35.1427C35.2709 34.6441 35.2175 34.0954 35.3212 33.566C35.4249 33.0366 35.681 32.5503 36.0572 32.1686C36.4333 31.7869 36.9126 31.5269 37.4344 31.4215C37.9562 31.3161 38.4971 31.3701 38.9887 31.5765C39.4803 31.783 39.9005 32.1327 40.1962 32.5814C40.4918 33.0301 40.6497 33.5577 40.6498 34.0975C40.6499 34.4558 40.5803 34.8107 40.4452 35.1418C40.3101 35.4729 40.112 35.7738 39.8622 36.0273C39.6125 36.2807 39.3159 36.4818 38.9896 36.619C38.6632 36.7562 38.3134 36.8268 37.9602 36.8269M40.278 54.0417H35.6375V38.897H40.278V54.0417ZM59.9678 27.002H33.3082C32.7031 26.995 32.12 27.2321 31.6871 27.661C31.2542 28.09 31.0069 28.6757 30.9995 29.2896V56.4464C31.0066 57.0605 31.2538 57.6467 31.6867 58.0761C32.1195 58.5055 32.7028 58.743 33.3082 58.7365H59.9678C60.5744 58.7442 61.1592 58.5073 61.5938 58.078C62.0284 57.6486 62.2772 57.0618 62.2856 56.4464V29.2876C62.277 28.6726 62.028 28.0861 61.5934 27.6572C61.1588 27.2283 60.5741 26.9919 59.9678 27" fill="#292F36"/>
<path d="M65.8458 54.633C65.2818 54.6385 64.7428 54.8703 64.3469 55.2778C63.951 55.6853 63.7302 56.2353 63.7329 56.8075C63.7356 57.3796 63.9616 57.9274 64.3614 58.331C64.7612 58.7346 65.3022 58.9612 65.8663 58.9612C66.4303 58.9612 66.9714 58.7346 67.3711 58.331C67.7709 57.9274 67.9969 57.3796 67.9996 56.8075C68.0023 56.2353 67.7816 55.6853 67.3856 55.2778C66.9897 54.8703 66.4508 54.6385 65.8868 54.633H65.8458ZM65.8458 58.7134C65.4758 58.7197 65.1124 58.6145 64.8014 58.4112C64.4904 58.2079 64.2458 57.9156 64.0985 57.5713C63.9513 57.227 63.9079 56.8461 63.9741 56.4768C64.0402 56.1075 64.2128 55.7665 64.47 55.4967C64.7273 55.2269 65.0576 55.0406 65.4192 54.9612C65.7808 54.8819 66.1575 54.9131 66.5016 55.0509C66.8458 55.1888 67.1419 55.427 67.3525 55.7356C67.5632 56.0441 67.6789 56.4091 67.685 56.7844C67.685 56.7952 67.685 56.8055 67.685 56.8162C67.6954 57.3085 67.5126 57.7849 67.1768 58.1404C66.841 58.496 66.3798 58.7018 65.8945 58.7125H65.8462" fill="#292F36"/>
</g>
<defs>
<clipPath id="clip0_2_85">
<rect width="79" height="76" fill="white" transform="translate(8 8)"/>
</clipPath>
<clipPath id="clip1_2_85">
<rect width="37" height="32" fill="white" transform="translate(31 27)"/>
</clipPath>
</defs>
</svg>
