<svg id="Layer_1" data-name="Layer 1" xmlns="http://www.w3.org/2000/svg" viewBox="0 0 333.11 42.34"><defs><style>.cls-1{fill:#3c3c3b}</style></defs><path class="cls-1" d="M73.69 70.06a1 1 0 0 1 .25-.71.84.84 0 0 1 .59-.27H95a.94.94 0 0 1 .73.27 1.08 1.08 0 0 1 .25.75v5.3a1.12 1.12 0 0 1-.26.69.89.89 0 0 1-.75.33H82v6.64h10.26a1.08 1.08 0 0 1 .69.22.89.89 0 0 1 .27.72v5.11a1.16 1.16 0 0 1-.24.7.81.81 0 0 1-.68.33H82V100c0 .61-.33.92-1 .92h-6.54a.81.81 0 0 1-.77-.9zM102.44 70a.91.91 0 0 1 1-1h6.34a1 1 0 0 1 .66.26.91.91 0 0 1 .32.69v23.34h11.74a1 1 0 0 1 .66.26.92.92 0 0 1 .28.7v5.63a1 1 0 0 1-.25.67.92.92 0 0 1-.69.32h-19.12a.83.83 0 0 1-.94-.94zM138.45 75.25q0 1.16.12 2.49c.06.88.13 1.77.2 2.67s.13 1.78.19 2.66.09 1.7.12 2.48l6.09-2.47zm-7.06-7a.7.7 0 0 1 0-.31 1.42 1.42 0 0 1 .16-.36 1.46 1.46 0 0 1 .26-.33 1.13 1.13 0 0 1 .31-.21l5.11-2.04a.89.89 0 0 1 .66 0 2.5 2.5 0 0 1 .51.22l.95.93 21.32 22.63a.63.63 0 0 1 .2.67 1.08 1.08 0 0 1-.65.55l-5.7 2.31a1.41 1.41 0 0 1-.77.12 1.18 1.18 0 0 1-.61-.41l-1.6-1.7-1.54-1.78-10.53 4.28c0 .78 0 1.55.06 2.32s0 1.55.05 2.33a1.06 1.06 0 0 1-.71 1.14L133 101a1 1 0 0 1-.7.05c-.22-.06-.33-.25-.33-.56zM170 90.59c2 1.62 3.94 3.33 6.63 3.34 1.87 0 4.62-1.22 3.67-3.6-.83-2.08-4.65-2.66-6.45-3.41-2.71-1.12-5.53-2.62-7.1-5.2-3.41-5.61.49-11.57 6.31-12.93a16 16 0 0 1 9.34.61c1.49.59 5.75 2.52 5.21 4.6-.25 1-2 2.22-2.62 2.87-1.28 1.37-1.69 1.73-3.32.56s-3.55-2.41-5.78-1.86-2.84 2.5-.92 3.92c2.1 1.57 5.36 1.93 7.73 3 2.68 1.21 5.19 3 6 6 1.62 6.09-3 11.18-8.67 12.43-4.88 1.06-12.46-.58-15.3-5.25-.88-1.45.1-1.89 1.2-2.94s2.64-3.37 4.09-2.13M196.82 70a1 1 0 0 1 .25-.67.89.89 0 0 1 .69-.27h6.33a1.16 1.16 0 0 1 .67.25.82.82 0 0 1 .35.69v11.69l4.58-5.91 4.56-5.91a1.91 1.91 0 0 1 .61-.59 1.45 1.45 0 0 1 .74-.23h8.13c.35 0 .52.11.52.33a.89.89 0 0 1-.24.51l-10.08 13.29L225.08 100a1.15 1.15 0 0 1 .24.58c0 .21-.16.32-.47.32h-8.09a1.29 1.29 0 0 1-.72-.22 1.78 1.78 0 0 1-.59-.57c-.76-1-1.45-2-2.07-3s-1.22-1.88-1.81-2.81-1.17-1.89-1.77-2.84-1.26-2-2-3l-2.72 3.13v8.35c0 .62-.34.94-1 .94h-6.3a.85.85 0 0 1-1-.94zM233.45 70.06a1 1 0 0 1 .25-.72.87.87 0 0 1 .69-.26h21.24a1 1 0 0 1 .73.27 1.09 1.09 0 0 1 .26.75v5.3a1.12 1.12 0 0 1-.26.69.89.89 0 0 1-.75.33h-13.87v5.31h10a1.09 1.09 0 0 1 .67.19.73.73 0 0 1 .27.64v4.63a.93.93 0 0 1-.23.58.87.87 0 0 1-.69.27h-10v5.48h14.38a.86.86 0 0 1 1 1v5.38a.53.53 0 0 1-.17.38c-.06.4-.35.6-.88.6h-21.7a1 1 0 0 1-.68-.23.88.88 0 0 1-.26-.69zM266.56 70.06a1 1 0 0 1 .25-.71.84.84 0 0 1 .59-.27h20.49a1 1 0 0 1 .74.27 1.13 1.13 0 0 1 .24.75v5.3a1.06 1.06 0 0 1-.26.69.88.88 0 0 1-.74.33h-13v5.35h10.28a1.08 1.08 0 0 1 .69.23.87.87 0 0 1 .28.71v5.12a1.17 1.17 0 0 1-.25.69.77.77 0 0 1-.67.34h-10.35V100c0 .61-.33.92-1 .92h-6.53a.81.81 0 0 1-.78-.9zM303.67 75.25a9 9 0 0 0 .6 3.32 8.17 8.17 0 0 0 1.73 2.69 8 8 0 0 0 2.55 1.8 8.5 8.5 0 0 0 6.52 0 7.9 7.9 0 0 0 2.56-1.8 8.17 8.17 0 0 0 1.68-2.69 9.43 9.43 0 0 0 0-6.62 8.26 8.26 0 0 0-1.68-2.71 7.81 7.81 0 0 0-2.63-1.82 8 8 0 0 0-9 1.82 8.26 8.26 0 0 0-1.73 2.76 9 9 0 0 0-.6 3.3m-8.28 0a16.3 16.3 0 0 1 2.23-8.3 16.35 16.35 0 0 1 5.87-5.89 16.74 16.74 0 0 1 3.91-1.64 16.33 16.33 0 0 1 8.7 0 16.82 16.82 0 0 1 3.9 1.64 16.2 16.2 0 0 1 5.91 5.89 17.18 17.18 0 0 1 1.64 3.92 16.37 16.37 0 0 1 0 8.71 16.23 16.23 0 0 1-7.55 9.75 15.65 15.65 0 0 1-3.9 1.62 16.6 16.6 0 0 1-8.7 0 15.58 15.58 0 0 1-3.91-1.65 16.14 16.14 0 0 1-3.31-2.55 16.32 16.32 0 0 1-2.56-3.3 15.51 15.51 0 0 1-1.65-3.9 16 16 0 0 1-.58-4.35M333.53 70.34a1 1 0 0 1 .15-.69.91.91 0 0 1 .67-.36l6.95-.83a1.45 1.45 0 0 1 .64.07 1.4 1.4 0 0 1 .61.45q3.22 4 6.38 7.94t6.41 8l-2-17a1.07 1.07 0 0 1 .27-.63.88.88 0 0 1 .57-.29l6.06-.72a1.1 1.1 0 0 1 .77.15.84.84 0 0 1 .38.66l3.57 29.8a.79.79 0 0 1-.18.66 1.12 1.12 0 0 1-.68.28l-6.78.81a.66.66 0 0 1-.51-.13 2.93 2.93 0 0 1-.51-.46l-6.7-8.57q-3.3-4.25-6.71-8.58L345 99.08a1 1 0 0 1-.13.73 1 1 0 0 1-.74.32l-6 .73a.93.93 0 0 1-.75-.19.94.94 0 0 1-.3-.62zM379.14 76.74V93.2h2.8l1-.07a8.53 8.53 0 0 0 3-.79 8.09 8.09 0 0 0 2.43-1.71 7.58 7.58 0 0 0 1.63-2.49 8.23 8.23 0 0 0 .59-3.13 8 8 0 0 0-.68-3.31 8.12 8.12 0 0 0-4.54-4.32 8.84 8.84 0 0 0-3.3-.61zM398.73 85a15.6 15.6 0 0 1-.58 4.32 15.05 15.05 0 0 1-1.65 3.81 15.74 15.74 0 0 1-2.55 3.2 16.07 16.07 0 0 1-7.21 4 16.87 16.87 0 0 1-4.34.55h-10.56a1.4 1.4 0 0 1-.68-.17.78.78 0 0 1-.3-.73V70.06a1.09 1.09 0 0 1 .24-.73 1 1 0 0 1 .74-.28h10.56a16.74 16.74 0 0 1 4.33.56 16.3 16.3 0 0 1 3.9 1.59 16.54 16.54 0 0 1 3.31 2.46 15 15 0 0 1 2.55 3.21 15.78 15.78 0 0 1 1.65 3.83 15.61 15.61 0 0 1 .59 4.3M398.73 71.91a4 4 0 1 1 4 4.07 4 4 0 0 1-4-4.07zm7.36 0a3.33 3.33 0 1 0-3.33 3.36 3.34 3.34 0 0 0 3.33-3.36zm-5.34 0a2 2 0 0 1 2-2 2.08 2.08 0 0 1 1.67.89l-.73.53a1.25 1.25 0 0 0-.94-.53 1.15 1.15 0 0 0 0 2.3 1.24 1.24 0 0 0 1-.55l.74.54a2.12 2.12 0 0 1-1.7.92 2 2 0 0 1-2.04-2.07z" transform="translate(-73.69 -58.88)"/></svg>