<svg width="623" height="260" xmlns="http://www.w3.org/2000/svg"><g fill="none" fill-rule="evenodd"><path fill="#B25353" d="M213 168l-52-18.266V28l52 18.266z"/><path d="M113.94 199.684c-.03.1-.151.171-.238.263l-3.632 3.59c-.46.447-.733.447-1.18.014-1.23-1.216-2.459-2.424-3.682-3.646-.136-.142-.266-.348-.302-.533-.065-.32.137-.498.468-.498.877-.007 1.747 0 2.654 0-.216-3.866-3.158-7.348-6.927-8.244-4.221-.995-8.256.69-10.414 4.407-.582.994-1.446 1.122-2.064.902-.906-.327-1.302-1.35-.834-2.224a12.19 12.19 0 0 1 4.696-4.826c2.402-1.379 4.992-1.933 7.753-1.585 3.77.462 6.74 2.281 8.883 5.38a11.424 11.424 0 0 1 2.042 5.671c.008.057.022.114.03.178.02.107.035.2.057.334.755 0 1.51.007 2.265 0 .195 0 .425-.021.468.213.036.192 0 .413-.043.604m-4.064 9.467c-1.776 3.141-4.416 5.23-7.962 6.09-3.905.946-7.509.178-10.687-2.252-2.424-1.855-3.935-4.314-4.539-7.292-.115-.554-.172-1.13-.259-1.727-.762 0-1.51.007-2.272-.007-.144-.007-.382-.085-.425-.192-.072-.17-.043-.398 0-.597.022-.092.137-.178.223-.263a873.207 873.207 0 0 1 3.661-3.617c.468-.462.72-.462 1.201.007a859.543 859.543 0 0 1 3.632 3.589c.094.1.202.199.274.327.215.383-.008.753-.44.753h-2.639c.137 1.798.741 3.404 1.813 4.818 1.43 1.884 3.33 3.078 5.66 3.533a9.312 9.312 0 0 0 9.386-3.724c.23-.327.424-.683.647-1.024.49-.76 1.395-1.002 2.143-.575.77.44 1.029 1.364.583 2.153m24.828-14.449c-1.705-11.847-5.833-23.708-15.14-31.839-4.1-3.589-9.328-6.183-14.816-7.37a20.219 20.219 0 0 0 6.818-2.444c4.078-2.338 6.97-5.785 8.3-9.41-3.776-.647-8.149.092-12.17 2.331.015-.07.044-.15.058-.227.978-4.556-.287-9.126-3.114-12.743-4.078 2.16-7.127 5.82-8.113 10.376-.87 4.023.015 8.031 2.172 11.414-2.833-.057-5.653.291-8.35 1.094-2.323.697-4.466 1.777-6.466 3.163-11.853 8.237-18.247 27.22-22.41 39.301-5.69 16.51-7.97 36.736 5.645 50.197 10.436 10.312 24.943 13.709 39.104 10 12.824-3.348 25.921-10.81 29.208-24.363 3.02-12.438 1.065-26.971-.726-39.48" fill="#4ECDC4"/><path d="M102.118 131.664c.434-.773-.185-3.429-.428-5.304l11.18-1.36c.161.437.28.916.324 1.446.162 1.99 1.518 3.936 2.446 5.712 1.098 2.118 1.275 3.621 1.563 5.912.28 2.219.73 4.409 1.29 6.585.36 1.417.67 3.292.412 4.616-.28 1.468-2.078.108-2.277-.909-.361-1.846-.428-2.075-.641-3.7-.118-.86-1.003-3.6-1.386-1.54-.383 2.098.568 5.37 1.135 7.352.361 1.324 1.032 3.693.634 4.988-.826 2.692-3.125-1.639-3.479-2.834-.818-2.756-1.142-5.69-1.628-8.525-.066-.372-.103-.858-.45-1.109-.457-.322-.516.58-.538.802-.228 2.018.472 4.18.958 6.127.531 2.09 1.091 4.194 1.091 6.355 0 .387-.015.78-.192 1.124-.272.551-.862.723-1.43.508-1.451-.55-1.488-3.056-1.702-4.215-.464-2.448-.92-4.889-1.4-7.337-.103-.537-.17-1.08-.31-1.61-.073-.28-.124-1.353-.589-1.31-.228.007-.295.35-.317.53a6.118 6.118 0 0 0-.044 1.037c.03.573.125 1.138.2 1.718.161 1.181.404 2.348.64 3.514.28 1.468.523 2.878.413 4.38-.03.495-.096 1.067-.509 1.41-.98.817-2.033-1.18-2.27-1.846-.589-1.596-.655-3.471-.854-5.153-.2-1.732-.405-3.5-.767-5.204-.147-.737-.235-1.947-.73-2.562-1.642-2.004-2.969 4.767-3.993 5.44-1.437.93-2.58.773-2.462-1.038.133-2.147 1.57-6.42 2.602-8.267 1.105-1.954 2.41-3.786 3.508-5.733M49.462 54.973c.843-.156 1.707-.448 3.024-1.216.389-.22 1.426-.042 2.24.434.323.185.266.633.093 1.088 2.152-.44 4.276-.498 6.235-.156-1.304 3.548-4.14 6.925-8.143 9.215a19.574 19.574 0 0 1-4.457 1.877c-.057.441-.036.818.123 1.117.684.206 1.353.426 2.023.668 1.26-.448 3.93-3.833 4.752-4.643 1.727-1.721 3.11-3.897 5.032-5.426 3.967-3.15 8.344-5.617 12.095-9.137 1.188-1.102 2.355-2.226 3.521-3.335L67.44 38c-1.627 1.635-2.837 2.34-5.688 2.439-2.765.1-5.558-.505-8.28.1-2.361.519-3.664 1.258-4.938 3.285-.468.746-1.001 1.436-1.534 2.112 1.742 2.694 2.642 5.83 2.462 9.037M39.125 64.465c.203.296.42.46.637.535a21.29 21.29 0 0 1-.7-2c-.091.683-.091 1.226.063 1.465" fill="#E8AA6B"/><path d="M55.511 110.46c-.022.1-.15.179-.222.258l-3.545 3.546c-.452.452-.717.452-1.153.015a847.599 847.599 0 0 1-3.581-3.597 1.07 1.07 0 0 1-.301-.53c-.058-.316.129-.488.45-.488.853-.007 1.706 0 2.586 0-.207-3.819-3.072-7.258-6.746-8.14-4.111-.981-8.05.688-10.156 4.35-.573.989-1.404 1.118-2.006.888-.888-.322-1.274-1.325-.816-2.185a11.891 11.891 0 0 1 4.57-4.765c2.341-1.369 4.877-1.913 7.57-1.57 3.667.46 6.567 2.25 8.659 5.31a11.384 11.384 0 0 1 1.99 5.596c.008.058.022.122.03.18.014.093.035.2.057.336.737 0 1.475 0 2.199-.007.2 0 .415-.021.465.208.036.186 0 .408-.05.595m-3.96 9.35c-1.734 3.103-4.298 5.167-7.757 6.02-3.81.924-7.32.164-10.421-2.236-2.37-1.827-3.84-4.257-4.426-7.201-.115-.545-.165-1.104-.251-1.699-.745 0-1.475.008-2.213-.014-.15 0-.38-.079-.423-.186-.071-.165-.035-.387 0-.58.022-.101.136-.187.222-.266l3.567-3.568c.458-.459.71-.459 1.175 0 1.174 1.182 2.356 2.364 3.538 3.547.1.1.2.208.265.322.215.38-.007.738-.423.745h-2.578c.136 1.777.723 3.36 1.769 4.758 1.396 1.863 3.251 3.038 5.522 3.482a9.003 9.003 0 0 0 9.139-3.668c.236-.323.422-.674.637-1.01.48-.76 1.368-.996 2.099-.567.745.423.995 1.333.558 2.121m24.201-14.266c-1.647-11.686-5.68-23.402-14.747-31.427-2.908-2.565-6.381-4.607-10.113-5.99a.717.717 0 0 1-.229.057c-.981.029-1.54-.243-1.783-.73a32.673 32.673 0 0 0-2.328-.61 20.977 20.977 0 0 0 2.213-.516c.437-3.11 5.465-9.1 5.859-9.98.107-.23.322-.639.465-1.04a19.778 19.778 0 0 0-5.665 2.135c.022-.071.043-.15.057-.229.165-.738.237-1.483.28-2.214-.881.158-1.74.186-3.073.437-1.468.272-1.726 2.515-2.45 4.106-.3.638-2.642 5.56-4.454 5.016.265.537.544 1.067.874 1.583-2.765-.05-5.515.287-8.144 1.09-2.263.687-4.354 1.755-6.302 3.116-11.56 8.133-17.791 26.87-21.852 38.793-5.543 16.301-7.77 36.271 5.508 49.548 10.177 10.182 24.315 13.536 38.117 9.874 12.512-3.31 25.282-10.669 28.49-24.047 2.944-12.28 1.025-26.633-.723-38.972" fill="#4ECDC4"/><path d="M43.207 50.763c1.248-1.59 2.573-2.995 3.793-4.535-.27-.419-.553-.838-.858-1.228-3.935 2.108-6.877 5.678-7.828 10.136-.574 2.69-.34 5.373.525 7.864.27-1.696 1.319-4.429 1.496-5.139.66-2.598 1.206-4.968 2.872-7.098" fill="#E8AA6B"/><path d="M51.772 67.714a.723.723 0 0 0 .228-.056A39.207 39.207 0 0 0 50 67c.242.483.79.749 1.772.714" fill="#343534"/><path d="M62 55.212c-1.865-.332-3.888-.27-5.938.152-.144.394-.35.788-.453 1.01C55.24 57.223 50.425 63 50 66a19.063 19.063 0 0 0 4.245-1.824c3.812-2.226 6.507-5.515 7.755-8.964M43.825 59.863c.682-1.615.922-3.886 2.285-4.162 1.243-.255 2.045-.284 2.867-.452.174-3.282-.661-6.484-2.278-9.249-1.15 1.58-2.406 3.02-3.576 4.643-1.577 2.183-2.091 4.614-2.713 7.277-.16.728-1.156 3.537-1.41 5.269.194.604.414 1.193.668 1.768 1.691.553 3.876-4.439 4.157-5.094" fill="#E8AA6B"/><path d="M272 37.04l-.574 14.872c-8.223-.313-14.21 1.821-19.401 6.906-5.062 4.95-8.797 12.099-12.74 19.666-6.862 13.137-14.634 28.03-31.655 33.5-7.887 2.546-15.609 2.319-23.61-.661-6.503-2.426-12.218-6.316-17.738-10.079-6.984-4.75-13.58-9.232-20.592-9.943-8.518-.853-15.343 1.259-20.283 6.273-6.56 6.643-9.558 18.094-8.002 30.605L102.506 130c-2.108-16.963 2.445-32.98 12.182-42.838 8.173-8.294 19.423-11.985 32.515-10.67 10.826 1.09 19.724 7.142 27.568 12.483 11.098 7.547 18.397 12.013 28.234 8.855 11.164-3.591 16.885-14.566 22.95-26.188 4.317-8.265 8.776-16.814 15.53-23.421C249.66 40.226 259.632 36.57 272 37.04" fill="#000"/><path d="M177.921 79.461a49.735 49.735 0 0 1-2.842-.444c-15.16-2.683-28.155-10.655-40.723-18.362C113.72 47.996 95.897 37.062 71.17 49.506L64 35.21c32.661-16.43 57.118-1.432 78.69 11.8 11.824 7.256 22.985 14.097 35.174 16.258 15.052 2.676 28.855-2.583 43.472-8.158 19.33-7.385 41.237-15.743 67.664-4.801l-6.098 14.777c-9.29-3.836-18.28-4.924-28.313-3.406-9.275 1.395-18.165 4.787-27.57 8.38-15.216 5.795-30.918 11.792-49.098 9.402" fill="#000"/><path d="M267.9 0H518.96c12.049 0 22.755 7.713 26.597 19.165l13.884 47.47a42.891 42.891 0 0 0 21.483 26.083C599.395 102.25 611 121.33 611 142.164v37.922C611 203.785 591.838 223 568.205 223h-319.41C225.169 223 206 203.785 206 180.086V62.079C206 27.795 233.718 0 267.9 0" fill="#FF6C6B"/><path fill="#F9D6CC" d="M515 25h20.668L550 81h-35zM430 81h69V25h-69z"/><path d="M245 212c0 25.948 21.04 47 47.004 47 25.95 0 46.996-21.052 46.996-47 0-25.955-21.046-47-46.996-47C266.039 165 245 186.045 245 212" fill="#1D1F1F"/><path d="M265 211.5c0 14.633 11.867 26.5 26.5 26.5s26.5-11.867 26.5-26.5-11.867-26.5-26.5-26.5-26.5 11.867-26.5 26.5" fill="#F7FFF7"/><path d="M281 212.5c0 5.797 4.704 10.5 10.504 10.5S302 218.297 302 212.5s-4.697-10.5-10.496-10.5c-5.8 0-10.504 4.703-10.504 10.5" fill="#FF6C6B"/><path d="M492 212c0 25.948 21.04 47 47.004 47 25.95 0 46.996-21.052 46.996-47 0-25.955-21.046-47-46.996-47C513.039 165 492 186.045 492 212" fill="#1D1F1F"/><path d="M513 211.5c0 14.633 11.868 26.5 26.504 26.5C554.132 238 566 226.133 566 211.5S554.132 185 539.504 185C524.868 185 513 196.867 513 211.5" fill="#F7FFF7"/><path d="M529 212.5c0 5.797 4.706 10.5 10.507 10.5 5.794 0 10.493-4.703 10.493-10.5s-4.699-10.5-10.493-10.5c-5.801 0-10.507 4.703-10.507 10.5" fill="#FF6C6B"/><path fill="#1D1F1F" d="M612 169h5v-31h-5z"/><path d="M617 167v-26c3.319 0 6 2.654 6 5.93v14.147c0 3.276-2.681 5.923-6 5.923" fill="#FFFFFE"/><path fill="#1D1F1F" d="M612 183h5v-11h-5z"/><path fill="#E8AA6B" d="M617 181h4v-9h-4z"/><path d="M254 113.865c0-.264.073-.472.218-.622a.767.767 0 0 1 .532-.243h18.369c.299 0 .517.079.663.243.145.165.218.38.218.658v4.656a.96.96 0 0 1-.226.615c-.16.2-.378.293-.677.293h-11.663v5.85h9.217c.24 0 .451.058.611.194.168.129.248.343.248.63v4.512a.976.976 0 0 1-.218.608.73.73 0 0 1-.605.293h-9.253v8.64c0 .536-.299.808-.889.808h-5.853c-.459-.064-.692-.329-.692-.787v-26.348zM280 113.829a.84.84 0 0 1 .228-.586.887.887 0 0 1 .646-.243h5.729c.22 0 .418.079.602.222.183.157.279.357.294.607v20.496h10.649c.228 0 .426.079.602.229.162.15.25.357.25.622v4.96c0 .207-.08.4-.22.585-.155.172-.36.265-.632.279h-17.296c-.566 0-.852-.279-.852-.829v-26.342zM306.007 112.957a.619.619 0 0 1 .022-.273c.035-.115.085-.215.143-.33.064-.108.143-.201.236-.287a.667.667 0 0 1 .271-.18l4.47-1.815a.774.774 0 0 1 .579-.029c.193.072.343.13.443.194l.844.818 18.77 20.002c.194.201.258.395.187.596-.072.2-.265.359-.572.488l-5.02 2.045c-.265.115-.494.144-.68.108-.186-.043-.364-.165-.543-.366-.48-.495-.937-1.005-1.402-1.5-.457-.495-.915-1.005-1.38-1.507l-9.281 3.775c.021.689.035 1.378.05 2.052.014.69.028 1.371.05 2.06.021.495-.186.833-.63 1.005l-5.155 2.103a.904.904 0 0 1-.622.05c-.193-.057-.294-.222-.294-.488l-.486-28.521zm6.214 6.208c.022.689.057 1.414.115 2.203.05.782.1 1.572.164 2.361.064.79.122 1.572.172 2.347.043.783.078 1.507.1 2.196l5.363-2.189-5.914-6.918zM339.183 132.582c.209.172.483.415.82.709.34.3.72.587 1.153.88a9.61 9.61 0 0 0 1.915.996 5.523 5.523 0 0 0 1.994.358c.648 0 1.18-.071 1.627-.215.439-.15.777-.336 1.036-.573.252-.236.425-.515.54-.83.101-.315.159-.652.159-1.003 0-.394-.151-.745-.447-1.053a4.484 4.484 0 0 0-1.094-.816 10.438 10.438 0 0 0-1.346-.616c-.468-.165-.871-.308-1.217-.416-1.519-.537-2.85-1.103-3.988-1.712-1.137-.616-2.088-1.289-2.844-2.04a7.62 7.62 0 0 1-1.713-2.472c-.374-.895-.569-1.898-.569-3 0-1.175.238-2.243.713-3.195a7.019 7.019 0 0 1 2.03-2.457c.886-.673 1.944-1.196 3.182-1.568 1.238-.373 2.628-.559 4.161-.559 1.152 0 2.253.129 3.312.387 1.05.25 2.102.666 3.117 1.232.439.25.842.515 1.224.788.388.272.734.53 1.022.78.288.258.518.494.691.724.173.222.26.415.26.587a.819.819 0 0 1-.13.444c-.08.143-.202.3-.368.473l-2.9 3.08c-.217.214-.433.322-.649.322a.835.835 0 0 1-.482-.15 5.8 5.8 0 0 1-.49-.38l-.165-.15c-.252-.216-.533-.43-.842-.66-.31-.229-.648-.43-1.001-.608a6.298 6.298 0 0 0-1.116-.459c-.396-.114-.799-.179-1.195-.179-.425 0-.82.036-1.18.1a3.684 3.684 0 0 0-.972.33 1.965 1.965 0 0 0-.663.594c-.165.244-.244.545-.244.896 0 .358.086.666.266.916.173.258.44.509.792.724.353.215.799.422 1.324.623.519.193 1.13.401 1.829.637 1.339.437 2.577.903 3.707 1.383 1.138.48 2.11 1.053 2.938 1.719a7.038 7.038 0 0 1 1.922 2.37c.468.917.698 2.027.698 3.338 0 1.39-.288 2.643-.857 3.767a8.68 8.68 0 0 1-2.34 2.887c-.993.788-2.166 1.403-3.505 1.84-1.34.43-2.779.645-4.327.645-1.454 0-2.887-.258-4.29-.774a16.404 16.404 0 0 1-3.931-2.084 10.25 10.25 0 0 1-1.281-1.074c-.346-.358-.627-.638-.828-.86l-.058-.05c-.014-.028-.021-.043-.036-.05-.014-.007-.021-.014-.036-.028-.007-.022-.021-.043-.036-.05-.014-.008-.029-.015-.036-.03-.295-.314-.439-.565-.439-.751 0-.215.144-.459.44-.724l3.282-3.108c.259-.193.475-.287.64-.287.116 0 .238.03.368.108.122.079.273.193.453.344M363 113.843c0-.221.071-.421.214-.579.15-.164.349-.243.612-.243h5.549c.185 0 .377.072.584.222.206.157.313.35.313.6v10.27c1.36-1.758 2.7-3.495 4.017-5.196 1.318-1.708 2.65-3.444 3.996-5.21a1.7 1.7 0 0 1 .541-.514c.214-.129.428-.193.648-.193h7.13c.3 0 .456.093.456.279 0 .121-.071.278-.207.45L378 125.435l9.786 14.765c.143.221.214.386.214.521 0 .179-.142.279-.42.279h-7.094a1.21 1.21 0 0 1-.634-.193 1.581 1.581 0 0 1-.513-.507 61.328 61.328 0 0 1-1.81-2.602c-.548-.822-1.075-1.658-1.595-2.472a271.78 271.78 0 0 0-1.552-2.495 75.205 75.205 0 0 0-1.731-2.658l-2.379 2.744v7.354c0 .557-.3.829-.897.829h-5.535c-.555 0-.84-.272-.84-.829v-26.328zM395 113.865c0-.264.072-.472.216-.636.145-.15.347-.229.614-.229H414.7c.282 0 .498.079.65.243.151.165.23.38.23.658v4.656c0 .222-.079.422-.23.615-.152.2-.368.293-.664.293h-12.321v4.678h8.909c.238 0 .433.05.599.164.151.122.23.308.23.565v4.077c0 .179-.064.343-.202.515-.144.157-.346.243-.613.243h-8.923v4.828h12.776c.57 0 .858.286.858.865v4.735a.529.529 0 0 1-.151.343c-.051.35-.31.522-.787.522H395.83a.958.958 0 0 1-.606-.193c-.152-.136-.224-.343-.224-.615v-26.327zM424 113.865c0-.264.073-.472.218-.622a.753.753 0 0 1 .532-.243h18.369c.291 0 .51.079.663.243.138.165.218.38.218.658v4.656a.97.97 0 0 1-.233.615c-.153.2-.379.293-.67.293h-11.663v4.714h9.21c.247 0 .451.064.618.2.168.129.248.343.248.63v4.505a.975.975 0 0 1-.218.608.711.711 0 0 1-.605.293h-9.253v9.777c0 .536-.306.808-.896.808h-5.846c-.466-.064-.692-.329-.692-.787v-26.348zM450 119.532c0-1.344.165-2.624.51-3.861.338-1.23.834-2.387 1.46-3.473a14.589 14.589 0 0 1 5.197-5.213 14.647 14.647 0 0 1 3.465-1.453 13.944 13.944 0 0 1 3.86-.532c1.324 0 2.61.18 3.847.532 1.244.345 2.401.827 3.472 1.453a14.709 14.709 0 0 1 2.94 2.265 14.3 14.3 0 0 1 2.265 2.948 15.136 15.136 0 0 1 1.466 3.473c.345 1.237.518 2.517.518 3.861a14.25 14.25 0 0 1-.518 3.855 14.586 14.586 0 0 1-1.466 3.451 14.32 14.32 0 0 1-2.265 2.92 14.979 14.979 0 0 1-2.94 2.265 14.027 14.027 0 0 1-3.472 1.46 14.554 14.554 0 0 1-3.846.517c-1.345 0-2.631-.18-3.86-.518a14.092 14.092 0 0 1-3.466-1.46 14.68 14.68 0 0 1-2.926-2.264A14.277 14.277 0 0 1 450 119.533m7.34-.022c0 1.05.172 2.028.525 2.934a7.102 7.102 0 0 0 1.488 2.38 6.999 6.999 0 0 0 2.257 1.596c.87.388 1.833.575 2.883.575 1.042 0 2.006-.187 2.883-.575a6.906 6.906 0 0 0 2.271-1.596 7.085 7.085 0 0 0 1.481-2.38c.36-.906.54-1.884.54-2.934 0-1.036-.18-2.014-.54-2.927a7.254 7.254 0 0 0-1.48-2.402 6.945 6.945 0 0 0-2.272-1.61 7.053 7.053 0 0 0-2.883-.59c-1.05 0-2.013.201-2.883.59a7.039 7.039 0 0 0-2.257 1.61 7.27 7.27 0 0 0-1.488 2.402 8.068 8.068 0 0 0-.525 2.927M483.009 114.586a.806.806 0 0 1 .137-.59c.116-.175.311-.28.594-.316l6.196-.71c.174-.02.369 0 .564.057.203.063.384.197.55.386 1.912 2.325 3.815 4.615 5.69 6.877 1.882 2.254 3.786 4.544 5.711 6.869l-1.81-14.73a.822.822 0 0 1 .738-.794l5.4-.624a1.03 1.03 0 0 1 .696.134c.195.119.311.309.34.568l3.178 25.778c.029.246-.03.436-.16.57-.144.133-.34.217-.608.245l-6.044.71a.698.698 0 0 1-.456-.12 2.505 2.505 0 0 1-.449-.4c-2.02-2.5-4.01-4.973-5.971-7.418a3116.627 3116.627 0 0 0-5.994-7.417l1.947 15.797c.037.267 0 .478-.115.625-.109.148-.326.246-.652.281l-5.385.625c-.29.035-.514-.014-.66-.154a.824.824 0 0 1-.274-.541l-3.163-25.708zM541 127.036c0 1.336-.167 2.601-.517 3.795-.35 1.2-.845 2.315-1.478 3.358a14.315 14.315 0 0 1-2.294 2.823 14.396 14.396 0 0 1-2.957 2.137 15.139 15.139 0 0 1-3.51 1.372 15.547 15.547 0 0 1-3.896.479h-9.467c-.226 0-.43-.05-.612-.15-.182-.1-.269-.315-.269-.636v-26.328c0-.264.073-.479.226-.643.145-.157.364-.243.655-.243h9.467c1.347 0 2.644.164 3.889.486 1.245.329 2.418.793 3.495 1.4a14.85 14.85 0 0 1 2.964 2.166 13.66 13.66 0 0 1 2.301 2.823 14.393 14.393 0 0 1 1.479 3.38c.35 1.2.524 2.459.524 3.78zm-17.565-7.275v14.493h1.61c.298 0 .582-.007.866-.029.284-.014.56-.043.845-.064a7.833 7.833 0 0 0 2.687-.693 7.367 7.367 0 0 0 2.177-1.508 6.695 6.695 0 0 0 1.457-2.187c.357-.843.524-1.758.524-2.759 0-1.05-.196-2.022-.604-2.908a7.13 7.13 0 0 0-1.631-2.294 7.222 7.222 0 0 0-2.433-1.508 8.165 8.165 0 0 0-2.964-.543h-2.534zM542.754 115.535c0-.974.76-1.754 1.739-1.754.584 0 1.113.3 1.45.766l-.64.452c-.204-.25-.48-.452-.81-.452-.535 0-.923.424-.923.988 0 .543.388.98.923.98.33 0 .613-.187.83-.465l.642.459a1.83 1.83 0 0 1-1.472.786c-.979 0-1.74-.8-1.74-1.76m4.627-.028a2.872 2.872 0 0 0-2.887-2.888 2.889 2.889 0 0 0-2.88 2.888 2.878 2.878 0 0 0 2.88 2.88 2.87 2.87 0 0 0 2.887-2.88m-6.38 0a3.483 3.483 0 0 1 3.493-3.507c1.95 0 3.507 1.58 3.507 3.507a3.492 3.492 0 0 1-3.507 3.493 3.48 3.48 0 0 1-3.493-3.493" fill="#FFFFFE"/></g></svg>