<svg width="865" height="467" xmlns="http://www.w3.org/2000/svg"><g fill-rule="nonzero" fill="none"><path d="M154.83 95.957c2.848-6.3 5.649-12.62 8.402-18.961 2.95-6.808 3.656-13.935 3.226-21.306-.12-2.072.631-4.486 1.733-6.283 2.784-4.538 3.003-5.506-.01-9.905-3.935-5.742-9.152-10.017-14.717-13.889 2.901.144 5.817.285 8.711.414.928.041 1.977-.111 2.95-.429 2.934-.958 4.501-3.142 5.54-4.938.467-.81.598-1.517.401-2.163-.175-.575-.592-1.026-1.238-1.341a4.349 4.349 0 0 0-.58-.228c-1.079-.339-2.504-.727-3.974-.723-4.225.012-7.675.12-10.856.34-2.27.157-4.524.443-6.705.718-.927.118-1.842.233-2.738.337l-.119.013-.11.042c-.33.122-.64.227-.938.327-.532.18-1.033.367-1.516.596l-17.946-8.753c-7.043-2.481-13.982-5.347-21.165-7.316C97.807 1.036 92.137.288 86.561.019c-4.974-.24-9.253 1.73-11.097 7.05-.28.814-.945 1.57-1.6 2.168-3.632 3.317-7.316 6.576-10.982 9.855l-20.92 42.893c-7.304 15.519-14.593 31.046-21.917 46.556-5.75 12.181-11.63 24.302-17.286 36.528-3.683 7.962-2.836 15.614 2.117 22.915 7.093 10.457 16.93 17.738 27.496 24.222 1.172.72 2.316 1.485 3.472 2.23l18.65 9.096c11.8 4.614 23.99 4.413 36.345 3.291 6.136-.558 11.5-1.955 14.961-7.509 10.31-21.136 20.617-42.272 30.925-63.407 6.037-13.316 12.09-26.624 18.104-39.95m-7.148-74.209c-.33-.216-.655-.439-.98-.66.393-.352 1.145-.808 2.3-1.092 1.31-.323 2.386-.227 2.873.011.06.03.1.054.124.074-.127.3-.97 1.058-2.616 1.462a6.7 6.7 0 0 1-1.7.205m18.945-2.199c-1.027 1.672-2.336 2.668-4.358 3.308-.195-.002-.414.003-.65.008-.707.014-1.586.032-2.353-.131a2.426 2.426 0 0 1-.553-.18c-.202-.099-.336-.219-.348-.313-.013-.108.084-.418.553-.821.741-.636 1.62-1.163 2.548-1.722.292-.176.584-.351.824-.506.024-.008.132-.028.307-.017.647.04 1.291.091 1.936.141.706.056 1.41.111 2.117.154a.48.48 0 0 1-.023.079" fill="#4ECDC4"/><path d="M140.542 75.022c-2.886 9.346 9.801 28.793-1.783 31.015-7.902 1.517-54.274-46.002-62.083-52.52-8.267-6.903-19.717-7.05-20.159 4.038-.218 5.443 16.058 17.202 18.038 18.946 7.872 6.925 25.125 17.284 30.528 26.38 4.002 6.737 6.793 13.968-4.359 4.5-17.671-15-35.24-30.124-52.803-45.252-16.014-13.793-27.568 1.454-12.454 14.393 10.832 9.274 48.404 34.22 57.161 49.944.915 1.642-.71 3.049-2.378 2.096-18.412-10.518-56.98-58.285-71.05-43.16-15.825 17.011 52.027 43.915 55.412 60.796.251 1.252-.869 2.084-2.152 1.684-9.544-2.977-15.413-12.543-22.986-19.035-4.77-4.087-21.065-15.365-25.155-7.748-.867 1.614-.86 3.673-.612 5.675.941 7.594 12.44 12.276 17.997 18.434 8.327 9.226 18.736 16.554 28.264 24.264 13.501 10.925 21.636 26.12 37.431 33.028 13.697 5.99 26.08 4.624 39.726 12.564l36.931-42.977c-5.202-6.667-8.431-13.963-9.742-22.376-3.274-21.018-4.956-44.777-12.269-65.786-6.255-17.971-15.721-27.634-21.503-8.903" fill="#E7AA6B"/><path d="M864.848 366.43c-46.653-2.038-77.473-3.385-116.014-40.562-28.849-27.827-43.216-57.56-57.109-86.317-29.239-60.515-62.379-129.104-206.433-120.239-49.703 3.058-93.62 22.524-132.367 39.696-74.42 32.985-109.54 45.478-162.217-4.139l-68.496 72.72c46.064 43.388 94.697 62.971 148.678 59.866 44.553-2.56 84.186-20.127 122.515-37.117 34.068-15.098 66.245-29.36 98.022-31.316 37.886-2.332 63.18 1.705 77.328 12.337 12.661 9.514 21.645 28.11 33.02 51.653 16.048 33.212 36.018 74.547 77.704 114.757 65.76 63.43 126.988 66.104 181.01 68.464" fill="#FF6C6B"/></g></svg>