<?xml version="1.0" encoding="UTF-8"?>
<svg width="624px" height="290px" viewBox="0 0 624 290" version="1.1" xmlns="http://www.w3.org/2000/svg" xmlns:xlink="http://www.w3.org/1999/xlink">
    <!-- Generator: Sketch 51.3 (57544) - http://www.bohemiancoding.com/sketch -->
    <title>Group</title>
    <desc>Created with Sketch.</desc>
    <defs></defs>
    <g id="Page-1" stroke="none" stroke-width="1" fill="none" fill-rule="evenodd">
        <g id="Group">
            <path d="M277.94444,107 C275.720785,107 273.484707,106.950299 271.205151,106.844683 C235.179457,105.210754 202.594838,90.6979783 171.084778,76.6635777 C119.319583,53.6083938 74.6166657,33.6968162 20.9694384,70.0657321 L0,39.1080437 C70.8401792,-8.90961095 132.177029,18.4074582 186.290105,42.5063691 C215.936767,55.7082731 243.937427,68.1832959 272.900843,69.4941673 C308.65945,71.1094591 339.119795,54.7080348 371.35658,37.3374354 C414.009759,14.3692287 462.340091,-11.674245 527,5.62180246 L517.341387,41.7484245 C494.614143,35.660017 473.396252,35.8898855 450.563416,42.4442425 C429.457328,48.5077994 409.84817,59.0755352 389.089917,70.2583245 C355.53012,88.3309546 320.88334,106.993787 277.94444,107" id="Fill-41" fill="#E07E7C"></path>
            <path d="M545.30886,15.0663526 C549.533785,16.3677528 553.876586,17.8984474 557.642415,20.2595592 C558.994887,21.0961736 560.682376,22.2302509 561.203512,23.829114 C561.74326,25.46516 560.37838,26.7231802 559.100355,27.4978232 C558.548199,27.8386661 557.965023,28.1237347 557.363235,28.3840147 C557.673435,28.2538747 559.776591,30.0138636 560.086791,30.2555522 C560.924332,30.8876609 561.786688,31.6127267 562.382272,32.4741297 C562.773124,33.0318726 563.033692,33.694967 562.996468,34.3766528 C562.934428,35.5169273 562.121704,36.3535417 561.234532,36.967059 C560.589316,37.4070562 559.286475,37.4504362 558.908031,38.2126849 C558.604035,38.8262021 559.770387,39.8921109 559.894467,40.5366138 C560.074383,41.4723825 559.664919,42.6498399 559.329903,43.5732143 C558.759135,45.1720774 557.139891,44.9861631 555.83705,45.413766 C555.601298,45.4943289 555.377954,45.6678489 555.30971,45.9095375 C555.005714,47.006432 557.394255,48.0661436 557.561763,49.2312066 C557.971227,52.0756956 554.211602,53.1354072 552.102241,52.5032986 C550.526425,52.0261185 549.056077,51.1895041 547.505076,50.6379583 C546.431784,50.2537353 545.346084,49.9066953 544.254179,49.6216267 C543.801287,49.4976838 543.342191,49.3799381 542.876891,49.3427552 C542.479835,49.3117695 542.070371,49.2312066 541.685723,49.3799381 C541.152178,49.5658524 540.649654,50.2723268 541.07773,50.7928869 C541.26385,51.015984 541.549235,51.1399269 541.822211,51.2452784 C543.540719,51.9021756 545.302656,52.1500614 547.083204,52.5528757 C547.933152,52.7573815 548.931996,53.0176615 549.583417,53.6373759 C550.185205,54.2137103 550.433365,55.0813104 550.371325,55.8993334 C550.315489,56.6553849 550.030105,57.7460822 549.446929,58.254248 C548.882364,58.7500196 548.150292,58.942131 547.405812,58.985511 C544.533359,59.1528339 541.505807,57.8390394 538.943554,56.6925678 C536.691501,55.6886305 534.315369,54.5855389 532.336292,53.0858301 C530.524724,51.7224584 529.079191,49.7145838 527.850799,47.8306521 C526.454899,45.6802432 525.288546,43.3934971 523.892646,41.2368911 C523.34049,40.3940795 519.016301,38.5907106 517,37.4504362 L523.110942,14.0376268 C524.370354,14.1057953 529.476247,15.3142384 529.798855,15.2646612 C530.990024,15.0973384 532.168784,14.868044 533.359952,14.6573411 C535.667841,14.2545268 538.00675,13.8888953 540.358066,14.0314296 C542.088983,14.1243868 543.671003,14.564384 545.30886,15.0663526" id="Fill-43" fill="#E8AA6B"></path>
            <path d="M495.003762,143.152 L620.9972,143.152 C621.034328,142.114 620.693989,140.116 620.465034,139 L495.52974,139 C495.300785,140.116 494.960446,142.114 495.003762,143.152" id="Fill-65" fill="#458F66"></path>
            <path d="M495.049506,143.438 C495.309415,144.362 495.823044,146.024 495.600265,147.152 L620.387358,147.152 C620.164579,146.024 620.678208,144.362 620.938117,143.438 C620.969058,143.324 620.987623,143.18 621,143 L495,143 C495.006188,143.18 495.024753,143.324 495.049506,143.438" id="Fill-66" fill="#397454"></path>
            <path d="M610.60847,161.815383 C610.60847,160.867085 611.39903,160.091205 612.363886,160.091205 C613.322517,160.091205 614.113077,160.867085 614.113077,161.815383 L614.113077,168.441153 C614.113077,169.395608 613.322517,170.171488 612.363886,170.171488 C611.39903,170.171488 610.60847,169.395608 610.60847,168.441153 L610.60847,161.815383 Z M614.113077,207.00732 C614.113077,207.955618 613.322517,208.737655 612.363886,208.737655 C611.39903,208.737655 610.60847,207.955618 610.60847,207.00732 L610.60847,173.669107 C610.60847,172.714651 611.39903,171.938771 612.363886,171.938771 C613.322517,171.938771 614.113077,172.714651 614.113077,173.669107 L614.113077,207.00732 Z M495,163.305565 C495,165.608574 495.093373,205.474033 495.093373,205.474033 C495.093373,205.474033 495,207.955618 495.273895,208.491344 C495.417067,208.768444 495.578914,209.427327 495.697187,210 L621.296589,210 C621.427311,209.427327 621.589158,208.768444 621.73233,208.491344 C622,207.955618 621.906627,205.474033 621.906627,205.474033 C621.906627,205.474033 622,165.608574 622,163.305565 C622,160.996398 621.545584,157.800511 621.190766,157 L495.809234,157 C495.448191,157.800511 495,160.996398 495,163.305565 Z" id="Fill-67" fill="#458F66"></path>
            <path d="M495.796761,148.084 C495.57916,149.014 494.341944,151.15 494,152.368 L623,152.368 C622.664273,151.15 621.42084,149.014 621.203239,148.084 C621.197022,148.054 621.190804,148.03 621.184587,148 L495.815413,148 C495.809196,148.03 495.802978,148.054 495.796761,148.084" id="Fill-68" fill="#458F66"></path>
            <path d="M495,156.21 L620,156.21 C619.96897,156.15 619.962764,156.072 619.962764,156 L495.037236,156 C495.037236,156.072 495.03103,156.15 495,156.21" id="Fill-69" fill="#458F66"></path>
            <path d="M621.012,119.066 C621.012,119.048 621.018,119.024 621.018,119 L621,119 C621.006,119.024 621.006,119.048 621.012,119.066" id="Fill-70" fill="#458F66"></path>
            <path d="M495.440386,121.124 C495.40317,121.562 495.167471,122.582 495,123.548 L621,123.548 C620.826327,122.582 620.59683,121.562 620.553411,121.124 C620.50379,120.596 620.547209,119.708 620.652653,119 L495.347347,119 C495.446589,119.708 495.49621,120.596 495.440386,121.124" id="Fill-71" fill="#458F66"></path>
            <path d="M495,119 C495.006,119.024 495.006,119.048 495.006,119.066 C495.012,119.048 495.012,119.024 495.018,119 L495,119" id="Fill-72" fill="#458F66"></path>
            <path d="M612.79578,111.236097 C612.79578,112.211962 612.010599,113.011542 611.058489,113.011542 C610.100196,113.011542 609.315015,112.211962 609.315015,111.236097 L609.315015,109.49213 C609.315015,108.52256 610.100196,107.729276 611.058489,107.729276 C612.010599,107.729276 612.79578,108.52256 612.79578,109.49213 L612.79578,111.236097 Z M609.315015,95.1563484 C609.315015,94.1804827 610.100196,93.3871983 611.058489,93.3871983 C612.010599,93.3871983 612.79578,94.1804827 612.79578,95.1563484 L612.79578,104.70724 C612.79578,105.689402 612.010599,106.482686 611.058489,106.482686 C610.100196,106.482686 609.315015,105.689402 609.315015,104.70724 L609.315015,95.1563484 Z M620.443572,92.996852 C620.443572,92.996852 620.666143,93.0220357 621,93.0094439 C613.488224,91.1458552 592.393425,90 559.502355,90 C522.382434,90 502.165554,90.8436516 495.56261,93.1605456 L495,114 L620.12208,114 L619.55947,93.0157398 L620.443572,92.996852 Z" id="Fill-73" fill="#458F66"></path>
            <path d="M495.032026,135.212 C495.211298,135.902 495.922207,137.804 495.742935,138.5 C495.705844,138.632 495.650207,138.878 495.594571,139.19 L620.405429,139.19 C620.343611,138.878 620.294156,138.632 620.257065,138.5 C620.071611,137.804 620.794883,135.902 620.967974,135.212 C621.017429,135.026 621.005065,134.57 620.961792,134 L495.038208,134 C494.994935,134.57 494.982571,135.026 495.032026,135.212" id="Fill-74" fill="#397454"></path>
            <path d="M621.156409,93.8483146 C622.105579,93.8230337 623.929473,93.5133427 623.997714,91.5603933 C624.09077,88.9185393 621.311502,88.0969101 621.311502,88.0969101 C609.667113,85.1706461 562.915853,85.0063202 557.72954,85 C557.72954,85 557.655096,85 557.500003,85 C557.344909,85 557.264261,85 557.264261,85 C552.077948,85.0063202 505.332892,85.1706461 493.682299,88.0969101 C493.682299,88.0969101 490.909235,88.9185393 491.002291,91.5603933 C491.089143,94.2022472 494.395727,93.8356742 494.395727,93.8356742 L495.289064,93.8546348 L495.289064,94 C501.91464,91.6741573 522.200816,90.8272472 559.447972,90.8272472 C592.45178,90.8272472 613.618885,91.9775281 621.156409,93.8483146" id="Fill-75" fill="#397454"></path>
            <path d="M495.612371,128.258 C495.48866,128.96 495.117526,131.396 495,132.932 L621,132.932 C620.876289,131.396 620.51134,128.96 620.381443,128.258 C620.362887,128.18 620.356701,128.09 620.34433,128 L495.649485,128 C495.643299,128.09 495.630928,128.18 495.612371,128.258" id="Fill-76" fill="#458F66"></path>
            <path d="M495.089217,126.076 C495.41701,126.55 495.738619,127.738 495.658217,128.668 L620.337165,128.668 C620.262948,127.738 620.584556,126.55 620.906165,126.076 C621.085523,125.818 620.980382,124.93 620.819578,124 L495.181989,124 C495.021185,124.93 494.916043,125.818 495.089217,126.076" id="Fill-77" fill="#397454"></path>
            <path d="M495.567694,238.104207 C495.351141,239.478442 494.812853,241.184838 495.066529,242.070601 C495.134588,242.311581 495.239771,242.702359 495.344954,243.158266 C532.721995,249.651689 583.45726,249.612611 620.679621,243.047545 C620.778616,242.637229 620.871425,242.292042 620.933297,242.070601 C621.19316,241.165299 620.623936,239.393774 620.419757,238 C583.290205,244.506449 532.833365,244.539014 495.567694,238.104207" id="Fill-78" fill="#458F66"></path>
            <path d="M494.940505,247.089096 C494.934301,247.100975 494.928096,247.118795 494.921892,247.136614 C494.400723,248.378018 493.885759,251.068718 494.022256,252.482375 C528.034696,257.940991 573.30189,258.451808 609.43623,254.020766 L609.43623,252.494254 C609.43623,251.573595 610.224187,250.825189 611.185866,250.825189 C612.141342,250.825189 612.929299,251.573595 612.929299,252.494254 L612.929299,253.575286 C615.671637,253.201083 618.370545,252.815 620.988795,252.387339 C621.081861,250.955863 620.579306,248.34832 620.070546,247.136614 C620.051933,247.089096 620.039524,247.041578 620.027115,247 C582.813213,252.921915 532.2847,252.945674 494.940505,247.089096" id="Fill-79" fill="#458F66"></path>
            <path d="M495.552598,228.097441 C495.583717,228.506691 495.596165,228.857477 495.552598,229.091335 C495.372104,230.117709 494.923982,231.897624 495.011117,233.021439 C495.017341,233.040927 495.017341,233.066911 495.017341,233.092895 C532.802742,239.673384 584.349224,239.634408 621.991475,232.982463 C622.066162,231.865144 621.630488,230.104717 621.449994,229.091335 C621.406427,228.837989 621.418875,228.448227 621.462442,228 C584.044252,234.52852 533.107714,234.561001 495.552598,228.097441" id="Fill-80" fill="#458F66"></path>
            <path d="M612.874481,276.752805 C612.874481,277.697756 612.08674,278.477034 611.131526,278.477034 C610.17011,278.477034 609.382369,277.697756 609.382369,276.752805 L609.382369,273.408661 C609.382369,272.46371 610.17011,271.684432 611.131526,271.684432 C612.08674,271.684432 612.874481,272.46371 612.874481,273.408661 L612.874481,276.752805 Z M612.874481,268.370968 C612.874481,269.322055 612.08674,270.095196 611.131526,270.095196 C610.17011,270.095196 609.382369,269.322055 609.382369,268.370968 L609.382369,253.687412 C573.257924,258.264902 528.003126,257.737202 494,252.098177 C494,252.141129 494.006203,252.190217 494.012405,252.23317 C494.186081,253.650596 494.279121,278.243864 494.279121,278.243864 C494.279121,278.243864 494.16127,278.323633 494.018608,278.477034 C494.818755,281.017356 502.708571,287 559.407326,287 C609.512625,287 619.536166,281.765954 621,278.593619 C620.807717,278.360449 620.640244,278.243864 620.640244,278.243864 C620.640244,278.243864 620.733284,253.650596 620.90696,252.23317 C620.919365,252.159537 620.925568,252.079769 620.93177,252 C618.314237,252.441795 615.616068,252.840638 612.874481,253.227209 L612.874481,268.370968 Z" id="Fill-81" fill="#458F66"></path>
            <path d="M495,233.108894 C495.118279,234.249083 495.890201,236.670381 495.709671,238.028358 C495.703446,238.105225 495.690996,238.188497 495.678545,238.278175 C533.172835,244.606859 583.939219,244.574832 621.296554,238.175686 C621.290329,238.124441 621.284104,238.073197 621.277879,238.028358 C621.097348,236.644759 621.906622,234.146594 622,233.038433 C622,233.025622 622,233.012811 622,233 C584.350081,239.559285 532.793098,239.597718 495,233.108894" id="Fill-82" fill="#397454"></path>
            <path d="M495,243.108116 C495.311004,244.386433 495.646887,246.281649 495.273683,247.318294 C532.712297,253.589043 583.368564,253.563604 620.676556,247.222898 C620.346892,246.148094 620.695216,244.252878 621,243 C583.580046,249.410664 532.575455,249.448822 495,243.108116" id="Fill-83" fill="#397454"></path>
            <path d="M495.623012,220.088072 C495.448973,221.062735 494.970367,222.671516 495.001445,223.546364 C532.780283,229.517643 584.364122,229.482414 622,223.452421 C621.993784,222.542344 621.527609,220.974663 621.366002,220.0411 C621.366002,220.029357 621.366002,220.011743 621.366002,220 C583.991182,225.89495 533.128361,225.924307 495.623012,220.088072" id="Fill-84" fill="#458F66"></path>
            <path d="M559.946006,287.808866 C503.350053,287.808866 495.474542,281.625537 494.675846,279 C494.353891,279.361487 493.858576,280.122512 494.038128,281.314785 C494.310551,283.058801 498.143052,287.99278 532.784159,289.185053 C539.97242,289.432386 545.600439,289.603617 550.021127,289.730454 L550.014936,289.914368 C550.014936,289.914368 549.439132,290.098283 558.001894,289.927052 C566.564655,290.098283 565.98266,289.914368 565.98266,289.914368 L565.976468,289.730454 C570.397156,289.603617 576.025175,289.432386 583.22582,289.185053 C617.854544,287.99278 621.687045,283.058801 621.959468,281.314785 C622.126637,280.236666 621.742768,279.50735 621.427004,279.120496 C619.965825,282.399245 609.960458,287.808866 559.946006,287.808866" id="Fill-85" fill="#397454"></path>
            <path d="M495,224.1013 C495,224.15195 495.006216,224.2026 495.006216,224.246919 C495.074589,224.949688 495.522122,226.963028 495.634005,228.298923 C533.139781,234.598524 584.009397,234.566867 621.378426,228.203954 C621.502741,226.861728 621.925411,224.930695 621.993784,224.246919 C622,224.170944 622,224.082306 622,224 C584.363694,230.502201 532.779268,230.540188 495,224.1013" id="Fill-86" fill="#397454"></path>
            <path d="M621.018,119.06 C621.018,119.036 621.012,119.012 621.012,119 C621.006,119.012 621.006,119.036 621,119.06 L621.018,119.06" id="Fill-87" fill="#397454"></path>
            <path d="M495,119.06 L495.018,119.06 C495.012,119.036 495.012,119.012 495.006,119 C495.006,119.012 495.006,119.036 495,119.06" id="Fill-88" fill="#397454"></path>
            <path d="M495.012373,119 C495.006186,119.024 495.006186,119.048 495,119.066 C495.006186,119.078 495.006186,119.102 495.012373,119.126 L619.987627,119.126 C619.993814,119.102 619.993814,119.078 620,119.066 C619.993814,119.048 619.993814,119.024 619.987627,119 L495.012373,119" id="Fill-89" fill="#397454"></path>
            <path d="M495,115.08 C495.112011,115.65 495.217799,116.148 495.236468,116.424 C495.292473,116.958 495.242691,117.846 495.143125,118.548 L620.856875,118.548 C620.751087,117.846 620.707527,116.958 620.757309,116.424 C620.782201,116.148 620.887989,115.65 621,115.08 L620.968886,114 L495.031114,114 L495,115.08" id="Fill-90" fill="#397454"></path>
            <path d="M494,152.288 C494.006211,152.342 494.018633,152.396 494.031054,152.432 C494.093163,152.666 494.173905,152.936 494.260857,153.242 C494.807415,154.142 495.97506,155.438 495.987482,156.158 L621.012518,156.158 C621.031151,155.444 622.15532,154.178 622.72051,153.272 C622.807463,152.96 622.894415,152.672 622.956524,152.432 C622.975156,152.378 622.987578,152.312 623,152.234 C622.981367,152.168 622.950313,152.078 622.93168,152 L494.062109,152 C494.037265,152.102 494.012422,152.198 494,152.288" id="Fill-91" fill="#397454"></path>
            <path d="M611.692,172 C610.762,172 610,172.78012 610,173.739793 L610,207.260207 C610,208.213688 610.762,209 611.692,209 C612.616,209 613.378,208.213688 613.378,207.260207 L613.378,173.739793 C613.378,172.78012 612.616,172 611.692,172" id="Fill-92" fill="#FFFFFE"></path>
            <path d="M611.692,170 C612.616,170 613.378,169.230299 613.378,168.283445 L613.378,161.710446 C613.378,160.769701 612.616,160 611.692,160 C610.762,160 610,160.769701 610,161.710446 L610,168.283445 C610,169.230299 610.762,170 611.692,170" id="Fill-93" fill="#FFFFFE"></path>
            <path d="M611.692,107 C612.616,107 613.378,106.2125 613.378,105.2375 L613.378,95.75625 C613.378,94.7875 612.616,94 611.692,94 C610.762,94 610,94.7875 610,95.75625 L610,105.2375 C610,106.2125 610.762,107 611.692,107" id="Fill-94" fill="#FFFFFE"></path>
            <path d="M613.378,252.686 C613.378,251.756 612.616,251 611.692,251 C610.762,251 610,251.756 610,252.686 L610,254.228 C611.14,254.084 612.262,253.928 613.378,253.778 L613.378,252.686" id="Fill-95" fill="#FFFFFE"></path>
            <path d="M611.692,271 C612.616,271 613.378,270.220808 613.378,269.262277 L613.378,254 C612.262,254.154602 611.14,254.315387 610,254.463805 L610,269.262277 C610,270.220808 610.762,271 611.692,271" id="Fill-96" fill="#FFFFFE"></path>
            <path d="M611.692,272 C610.762,272 610,272.803071 610,273.776874 L610,277.223126 C610,278.196929 610.762,279 611.692,279 C612.616,279 613.378,278.196929 613.378,277.223126 L613.378,273.776874 C613.378,272.803071 612.616,272 611.692,272" id="Fill-97" fill="#FFFFFE"></path>
            <path d="M611.692,108 C610.762,108 610,108.756 610,109.68 L610,111.342 C610,112.272 610.762,113.034 611.692,113.034 C612.616,113.034 613.378,112.272 613.378,111.342 L613.378,109.68 C613.378,108.756 612.616,108 611.692,108" id="Fill-98" fill="#FFFFFE"></path>
            <path d="M494,213.880702 C494,213.944701 494.006184,214.020337 494.018552,214.084337 C535.796802,216.650138 580.227934,216.638502 621.987632,214.049428 C621.993816,213.991247 622,213.921429 622,213.863247 C622,213.426887 621.474371,212.60071 620.992029,211.931624 L620.181941,210.919267 C620.181941,210.919267 620.268515,210.494542 620.379825,210 L495.607807,210 C495.725301,210.494542 495.811875,210.919267 495.811875,210.919267 L495.280062,211.588353 C494.748249,212.28653 494,213.357069 494,213.880702" id="Fill-99" fill="#458F66"></path>
            <path d="M621.301053,216.487971 C621.301053,216.487971 621.907219,214.945947 622,214 C580.230212,216.883196 535.788344,216.896154 494,214.038875 C494.086595,214.991301 494.692761,216.507409 494.692761,216.507409 L494.68039,216.50093 C495.193776,217.829143 495.552527,219.390605 495.435005,220.142179 C495.42882,220.161616 495.42882,220.181054 495.422635,220.194012 C532.745144,226.634229 583.360008,226.601834 620.552624,220.096826 C620.447473,219.332293 620.806224,217.78379 621.313424,216.481492 L621.301053,216.487971" id="Fill-100" fill="#397454"></path>
            <path d="M572.404421,182.498446 C572.097849,176.702455 567.867163,171.474698 562.440847,170.13619 C556.370731,168.639839 550.570399,171.177953 547.449501,176.740337 C546.609495,178.243001 545.377078,178.432413 544.48802,178.097786 C543.175894,177.605316 542.611803,176.071083 543.28626,174.770457 C544.8743,171.708305 547.124535,169.283838 550.036964,167.534939 C553.495091,165.451412 557.229132,164.636943 561.202298,165.148354 C566.628614,165.849177 570.90222,168.570388 573.992461,173.21097 C575.690867,175.774338 576.678027,178.615511 576.929416,181.728173 C576.935547,181.810251 576.953942,181.898643 576.966205,181.987035 C576.99073,182.138564 577.021387,182.290093 577.052045,182.492132 C578.143439,182.492132 579.222571,182.498446 580.307834,182.492132 C580.58988,182.492132 580.920977,182.45425 580.97616,182.801504 C581.031343,183.091935 580.982291,183.420248 580.914845,183.710679 C580.878057,183.862209 580.706377,183.982169 580.577617,184.108444 C578.836291,185.901539 577.094965,187.694634 575.353638,189.48773 C574.691444,190.163297 574.299033,190.169611 573.649101,189.512985 C571.883249,187.694634 570.111266,185.882598 568.357677,184.045306 C568.15534,183.836954 567.971397,183.533895 567.922345,183.243464 C567.836505,182.769936 568.118551,182.498446 568.590671,182.498446 C569.847614,182.492132 571.104558,182.498446 572.404421,182.498446" id="Fill-101" fill="#FFFFFE"></path>
            <path d="M540.94821,189.518994 C539.850754,189.518994 538.76556,189.537912 537.680367,189.506383 C537.459649,189.500077 537.122442,189.386571 537.061132,189.228923 C536.956904,188.970381 537.005952,188.629863 537.061132,188.339792 C537.091787,188.18845 537.263456,188.062333 537.386077,187.936215 C539.139554,186.126423 540.893031,184.322937 542.646508,182.519451 C543.327053,181.825802 543.694915,181.825802 544.381591,182.525757 C546.122806,184.316631 547.870152,186.113811 549.611367,187.910991 C549.752381,188.056027 549.905657,188.213674 549.997623,188.396545 C550.310305,188.964076 549.991491,189.518994 549.372257,189.518994 C548.115394,189.518994 546.858531,189.518994 545.571013,189.518994 C545.767206,192.217917 546.631683,194.620463 548.182835,196.74555 C550.242864,199.564285 552.977307,201.348853 556.330985,202.02989 C561.462664,203.076669 566.741488,200.957888 569.831531,196.455479 C570.162607,195.963619 570.444635,195.433924 570.757318,194.923146 C571.468519,193.775473 572.768299,193.422343 573.859623,194.059239 C574.957079,194.715052 575.324942,196.102349 574.687314,197.287857 C572.130671,201.992055 568.335558,205.126085 563.234534,206.412487 C557.606241,207.831314 552.431645,206.671029 547.851759,203.032527 C544.357067,200.257934 542.18668,196.575291 541.316072,192.104411 C541.156665,191.278339 541.076962,190.427043 540.94821,189.518994" id="Fill-102" fill="#FFFFFE"></path>
        </g>
    </g>
</svg>