<svg width="434" height="367" xmlns="http://www.w3.org/2000/svg"><g fill="none" fill-rule="evenodd"><g fill="#4ECDC4"><path d="M197.356 299.761c5.235 9.303 13.282 17.742 22.66 23.767 23.292 14.96 52.747 17.235 80.82 6.244 15.474-6.058 29.777-15.791 41.358-28.14 11.365-12.115 19.577-26.22 23.872-40.948a81.884 81.884 0 0 0-3.758-2.844c-7.1-5.052-17.004-10.335-30.009-13.53a71.935 71.935 0 0 1-.994 4.458c-5.082 19.742-22.716 38.576-43.882 46.865-9.984 3.907-29.445 8.725-47.61-2.945-8.51-5.465-13.98-14.482-12.722-20.972 3.366-17.34 36.04-29.32 65.328-33.13l-.026-.183c7.239-.962 13.99-1.314 20.26-1.183 25.195.53 42.705 8.865 53.644 16.66.435.31.86.622 1.28.932.002-.018.009-.037.012-.056.89.667 1.76 1.35 2.605 2.047.287.237.56.484.839.721 11.43 9.464 16.388 18.795 16.445 18.9l-.061.03c4.025 6.445 7.285 13.94 8.494 22.292 2.171 14.992-2.689 30.429-14.442 45.867l29.191 22.23c17.678-23.217 25.13-48.568 21.547-73.31-3.118-21.51-14.448-42.162-32.758-59.719-6.628-6.355-14.327-11.979-22.712-16.672l-8.101-4.192c-9.278-4.418-26.422-10.77-50.206-12.129a137.404 137.404 0 0 0-5.81-.185c-16.523-.16-42.81 2.82-67.024 11.656-39.44 14.396-51.411 36.44-54.505 52.398-2.26 11.645-.096 23.769 6.265 35.071"/><path d="M44.648 154.454c-6.876 13.924-7.914 29.255-2.92 43.174 5.34 14.886 17.059 27.134 32.995 34.488 15.832 7.306 34.777 9.352 54.775 5.912 18.453-3.171 36.841-10.494 53.184-21.172 16.962-11.087 30.854-25.268 40.175-41.015 6.052-10.226 10.088-20.833 12.086-31.62-6.859-1.775-19.612-4.57-36.343-5.98-1.273 6.335-3.742 12.62-7.411 18.817-13.023 22.009-40.363 39.99-68.03 44.747-25.29 4.347-42.695-5.007-46.815-16.495-3.993-11.124 4.687-24.332 22.649-34.464 22.235-12.547 52.86-18.895 86.634-18.05l.923.015c34.343.749 57.423 8.373 57.654 8.452 13.95 3.73 27.088 8.586 38.638 14.389 17.386 8.732 31.896 22.949 40.86 40.03.119.22.23.448.344.673 19.392 2.02 34.053 7.226 42.92 11.24-2.244-9.883-5.819-19.606-10.703-28.908-12.52-23.86-32.753-43.698-56.98-55.868-18.336-9.209-39.313-16.275-61.45-20.847-18.504-3.615-48.116-7.595-80.107-4.766-3.23.284-6.194.465-8.9.538-22.124 2.666-46.118 8.746-67.984 21.08-17.104 9.649-29.281 21.635-36.194 35.63M230.03 95.028c-7.536-17.348-21.538-32.339-32.467-42.214-15.583-14.075-35.03-26.932-54.76-36.197C120.853 6.309 99.89.855 81.378.44 70.23.188 59.967 1.766 50.915 5.209L64.06 39.375c14.301-5.442 37.964-1.587 63.295 10.31 22.425 10.53 43.496 26.244 56.906 41.525 17.29.08 33.092 1.8 45.768 3.818"/></g><path d="M24.826 19.228a78.839 78.839 0 0 1 5.402-2.379c3.804-1.478 7.744-2.579 11.732-3.431 1.158-.247 12.413-3.062 12.715-2.414l9.211 19.752c.28.641-3.001 5.505-3.388 6.294-1.16 2.362-2.076 4.837-3.037 7.285-2.081 5.299-3.282 13.152-4.153 18.803-.495 3.202-1.005 6.763-4.112 8.503-1.013.568-2.299.731-3.343.223-3.849-1.873-2.213-8.658-1.942-11.883.145-1.72.591-3.677-.12-5.341-1.21-2.828-4.406-2.309-6.81-1.478-10.135 3.507-19.727 10.327-29.557 14.752-2.412 1.084-7.422 1.617-6.328-2.667.961-3.76 5.58-6.032 8.745-7.615 4.174-2.087 8.664-3.653 12.397-6.526.152-.115.303-.244.381-.417.147-.324-.01-.719-.276-.954-1.788-1.595-4.401-2.063-4.126-5.145.125-1.386 1.591-2.65 1.293-4.04-.344-1.605-2.058-2.565-2.389-4.368a6.933 6.933 0 0 1 1.022-5.015c-1.243-.159-2.584-1.331-2.96-2.564-1.255-4.102 4.142-6.705 9.643-9.375z" fill="#E8AA6B"/></g></svg>