<svg width="561" height="238" xmlns="http://www.w3.org/2000/svg"><g fill="none" fill-rule="evenodd"><path d="M518.235 59.23c6.18-.095 12.236-.174 12.838-4.47.182-1.289-.545-2.936-1.616-3.612a7.008 7.008 0 0 0 3.078-4.158c.468-1.793-.692-3.405-.322-5.022.321-1.401 2.204-1.933 2.91-3.15 1.57-2.705-.625-4.25-1.582-6.475-.142-.329-.117-.758.155-.992.146-.125.338-.179.527-.22 4.647-1.037 9.43-.553 14.145-.681 3.576-.099 8.778-.207 11.265-3.242 2.833-3.457-1.985-5.109-4.658-5.146-10.896-.146-22.597 2.005-33.38.889-2.557-.267-5.707-1.156-5.607-4.264.059-1.828 1.304-3.43 2.171-4.945 1.626-2.838 6.024-8.355 3.298-11.715-.74-.912-1.987-1.312-3.158-1.225-3.59.268-5.578 3.313-7.4 6.034-3.212 4.805-7.666 11.487-11.837 15.452-1.926 1.832-3.823 3.708-5.894 5.377-.692.557-5.775 3.611-5.793 4.318v22.03c0 .723 11.514 2.952 12.68 3.221 4.018.922 8.098 1.597 12.214 1.868.896.059 3.218.17 5.966.128" fill="#E8AA6B"/><path d="M493.824 21.16l-5.383 41.38c-22.687-2.952-39.803 1.475-55.507 14.366-15.28 12.537-27.434 31.55-40.307 51.678-22.344 34.941-47.662 74.542-96.196 85.516-22.518 5.091-43.848 2.53-65.22-7.832-17.391-8.433-32.22-20.734-46.559-32.628-18.125-15.031-35.242-29.228-54.493-32.971-23.367-4.541-42.81-.386-57.786 12.358-19.878 16.912-31.086 48.106-29.99 83.446l-41.706 1.3c-1.49-47.905 15.202-91.468 44.656-116.525 24.768-21.075 56.856-28.523 92.786-21.538 29.72 5.776 52.805 24.92 73.171 41.812 28.807 23.896 47.89 38.22 75.937 31.878 31.815-7.194 50.48-36.385 70.243-67.293 14.06-21.986 28.596-44.722 48.991-61.458 24.67-20.25 53.247-27.932 87.363-23.489" fill="#EFD450"/></g></svg>