<svg width="739" height="339" xmlns="http://www.w3.org/2000/svg" xmlns:xlink="http://www.w3.org/1999/xlink"><defs><path id="a" d="M0 .923h599.81v432.153H0z"/></defs><g fill="none" fill-rule="evenodd"><path d="M598.896 39.521l-5.795 1.111c-.156-3.633-.148-7.078-.501-10.485-.27-2.596-.927-5.16-1.538-7.708-.786-3.274-1.698-6.518-2.734-10.453C602.85 5.659 617.82 1.885 633.397 0c.503 1.494.803 2.466 1.155 3.419 2.338 6.323 4.714 12.632 7.012 18.969.544 1.5.836 3.091 1.316 4.913l-4.775 2.05c2.48 9.673 6.007 19.023 11.663 27.178 5.806 8.372 12.23 16.444 19.269 23.804 13.466 14.079 23.088 30.22 28.206 48.931 5.725 20.929 11.64 41.84 16.269 63.023 2.67 12.226 3.123 24.959 4.269 37.491.823 8.999 2.599 17.625 6.948 25.655 5.739 10.595 10.82 21.472 12.69 33.536 1.289 8.317 2.044 16.651-1.888 24.536-2.858 5.731-7.067 9.816-13.616 11.465-16.226 4.085-32.377 8.463-48.56 12.723-11.368 2.993-20.928-.744-27.101-10.729-6.86-11.092-9.863-23.326-10.97-36.224-.821-9.585-1.302-19.375-3.746-28.594-2.181-8.229-7.102-15.696-10.346-23.688-4.131-10.177-8.445-20.353-11.52-30.869-7.158-24.479-14.836-48.96-16.183-74.639-.477-9.082.96-18.355 2.317-27.422 1.728-11.549 4.918-22.903 6.25-34.482 1.203-10.457-.56-20.949-3.16-31.525" fill="#2A2E36" fill-rule="nonzero"/><path d="M620.759 108.933c.454 9.771-16.698 25.423-6.04 30.475 7.27 3.446 64.064-30.948 73.256-35.303 9.733-4.613 20.855-1.89 18.506 8.956-1.152 5.324-19.853 12.634-22.207 13.825-9.356 4.734-28.652 10.444-36.161 17.897-5.562 5.521-10.073 11.822 3.094 5.45 20.864-10.1 41.659-20.343 62.452-30.592 18.957-9.344 26.325 8.31 8.452 17.054-12.81 6.266-55.43 21.01-67.844 34.04-1.298 1.362-.077 3.13 1.776 2.625 20.46-5.573 69.759-42.16 79.595-23.996 11.06 20.432-61.366 29.491-68.87 44.986-.557 1.15.319 2.235 1.662 2.17 9.985-.494 18.062-8.285 27.02-12.674 5.64-2.763 24.24-9.6 26.293-1.203.435 1.78-.087 3.771-.828 5.647-2.812 7.116-15.118 8.771-22.04 13.34-10.37 6.847-22.284 11.337-33.438 16.416-15.807 7.197-27.487 19.87-44.51 22.603-14.76 2.37-26.405-2.054-41.605 2.217l-24.994-50.855c6.706-5.152 11.659-11.407 15.034-19.224 8.432-19.528 16.01-42.109 28.35-60.617 10.556-15.834 22.139-22.82 23.047-3.237" fill="#F2B56A" fill-rule="nonzero"/><g transform="translate(.328 49)"><mask id="b" fill="#fff"><use xlink:href="#a"/></mask><path d="M-511.77 333.953c12.715-5.062 46.24-41.485 66.272-63.248 50.08-54.406 101.863-110.665 160.984-118.813 53.014-7.306 94.222 1.453 130.58 9.18 45.677 9.706 75.852 16.12 122.475-10.223 34.897-19.719 56.25-44.908 76.901-69.27 43.46-51.266 92.718-109.373 229.964-64.722 47.353 15.406 84.998 45.247 118.21 71.574 63.793 50.568 94.667 71.457 158.087 36.61l48.108 87.553c-55.462 30.472-107.449 37.255-158.933 20.732-42.493-13.634-76.465-40.564-109.318-66.609-29.204-23.148-56.784-45.013-87.06-54.863-36.095-11.742-61.595-14.168-77.953-7.416-14.64 6.041-27.994 21.795-44.901 41.74-23.853 28.136-53.537 63.155-103.963 91.646-79.546 44.944-139.494 32.203-192.385 20.963-31.097-6.61-60.471-12.852-96.173-7.932-2.998.414-14.676 3.405-39.099 24.555-20.108 17.415-41.416 40.564-62.022 62.951-22.243 24.165-43.25 46.988-63.716 63.935-12.882 10.666-52.076 43.122-96.21 25.772l36.549-92.973c-7.913-3.11-14.659-1.834-16.398-1.142" fill="#FFE66D" fill-rule="nonzero" mask="url(#b)"/></g></g></svg>